<svg width="24" height="28" viewBox="0 0 24 28" fill="none" xmlns="http://www.w3.org/2000/svg">
<path d="M3.13694 5.25469L4.00094 8.93469L3.13694 12.5987L6.35294 14.5827L8.32094 17.7987L12.0009 16.9347L15.6809 17.7987L17.6489 14.5827L20.8649 12.5987L20.0009 8.93469L20.8649 5.25469L17.6649 3.27069L15.6809 0.0546875L12.0009 0.934688L8.33694 0.0706875L6.33694 3.27069L3.13694 5.25469ZM12.0169 15.3987C10.3196 15.3987 8.69169 14.7244 7.49145 13.5242C6.29122 12.3239 5.61694 10.6961 5.61694 8.99869C5.61694 7.3013 6.29122 5.67344 7.49145 4.4732C8.69169 3.27297 10.3196 2.59869 12.0169 2.59869C15.5369 2.59869 18.4009 5.46269 18.4009 8.98269C18.4009 12.5347 15.5369 15.3987 12.0169 15.3987ZM11.9849 13.7987C9.32894 13.7987 7.20094 11.6547 7.20094 8.99869C7.20094 6.35869 9.32894 4.19869 11.9849 4.19869C14.6409 4.19869 16.8009 6.35869 16.8009 8.99869C16.8009 11.6547 14.6409 13.7987 11.9849 13.7987ZM18.1289 15.5587L16.0809 19.1427L12.7529 18.3907L16.8009 27.7187L19.0409 24.1987H23.0409L18.1289 15.5587ZM5.80894 15.6707L7.80894 19.2707L11.2169 18.4547L7.20094 27.7187L4.96094 24.1987H0.960938L5.80894 15.6707Z" fill="white"/>
</svg>
