<svg width="32" height="32" viewBox="0 0 32 32" fill="none" xmlns="http://www.w3.org/2000/svg">
<path d="M19 3C18.4696 3 17.9609 3.21071 17.5858 3.58579C17.2107 3.96086 17 4.46957 17 5V9C17 9.53043 17.2107 10.0391 17.5858 10.4142C17.9609 10.7893 18.4696 11 19 11V14L22.6 11H27C27.5304 11 28.0391 10.7893 28.4142 10.4142C28.7893 10.0391 29 9.53043 29 9V5C29 4.46957 28.7893 3.96086 28.4142 3.58579C28.0391 3.21071 27.5304 3 27 3H19ZM10 8C8.93913 8 7.92172 8.42143 7.17157 9.17157C6.42143 9.92172 6 10.9391 6 12C6 13.0609 6.42143 14.0783 7.17157 14.8284C7.92172 15.5786 8.93913 16 10 16C11.0609 16 12.0783 15.5786 12.8284 14.8284C13.5786 14.0783 14 13.0609 14 12C14 10.9391 13.5786 9.92172 12.8284 9.17157C12.0783 8.42143 11.0609 8 10 8ZM15 18H5C4.20435 18 3.44129 18.3161 2.87868 18.8787C2.31607 19.4413 2 20.2044 2 21C2 23.232 2.918 25.02 4.424 26.23C5.906 27.42 7.894 28 10 28C12.106 28 14.094 27.42 15.576 26.23C17.08 25.02 18 23.232 18 21C18 20.2044 17.6839 19.4413 17.1213 18.8787C16.5587 18.3161 15.7956 18 15 18Z" fill="#F8F8F8"/>
</svg>
