<svg width="22" height="24" viewBox="0 0 22 24" fill="none" xmlns="http://www.w3.org/2000/svg">
<path d="M9.67801 0.516053C9.47811 0.515347 9.27761 0.515549 9.07654 0.516406C8.10878 0.520895 7.12556 0.546264 6.13394 0.582981L6.42082 1.83847C7.45348 1.72197 8.58561 1.63522 9.71764 1.59184C10.3309 1.56834 10.9405 1.55593 11.5318 1.55906C13.3056 1.56829 14.915 1.71692 15.968 2.12404L16.4182 2.29824L16.2172 2.73627C14.7484 5.93817 14.4087 9.02719 14.6388 12.0581C14.7525 8.4611 16.2508 5.26188 18.2178 1.16057C15.5412 0.716736 12.6765 0.525989 9.67801 0.516002V0.516053ZM11.095 2.47245C10.6532 2.4728 10.2029 2.48173 9.75256 2.49897C7.64631 2.57967 5.54738 2.8263 4.17941 3.10904C5.7075 5.93741 6.94365 8.77229 7.74189 11.5359C7.84118 11.5326 7.94056 11.5334 8.03979 11.5382C8.24287 11.5481 8.44373 11.5756 8.64 11.6184C7.82751 9.02613 6.90205 6.63534 5.75163 4.24818L5.49168 3.70882L6.08233 3.60452C7.56609 3.34236 9.09757 3.24088 10.5551 3.24043C10.6523 3.24043 10.7492 3.24078 10.8457 3.24164C11.7718 3.24971 12.6644 3.29752 13.4914 3.36949L14.0501 3.41816L13.8872 3.95363C12.942 7.05859 12.7569 10.3931 13.2913 13.5657C13.3002 13.574 13.3092 13.5821 13.3179 13.5904C13.5106 13.5231 13.6909 13.4544 13.8589 13.3809C13.4418 9.98189 13.6266 6.47516 15.1846 2.82978C14.3152 2.60872 12.9898 2.49317 11.5334 2.47502C11.3873 2.47321 11.2411 2.47237 11.095 2.4725V2.47245ZM18.421 2.84491C16.8564 6.15126 15.7451 8.80084 15.5629 11.6612C16.5757 8.29199 18.5333 5.27177 20.7641 3.33136C19.9897 3.13863 19.2081 2.97635 18.421 2.84491ZM3.51259 3.77943C2.56439 3.97451 1.63813 4.22215 0.742188 4.56431C1.17818 4.94156 1.96636 5.64337 2.92264 6.57613C3.36278 6.12407 3.81166 5.67747 4.27984 5.27136C4.03187 4.77011 3.77609 4.27274 3.51259 3.77943ZM10.691 4.15679C10.0026 4.15346 9.29787 4.17313 8.59067 4.222C8.51647 4.91206 8.10747 5.55763 7.61896 6.19252C8.3989 8.03185 9.0725 9.90875 9.67892 11.9015C10.6077 12.1749 11.5265 12.498 12.2708 12.8852C11.9943 10.7438 12.0321 8.54962 12.3911 6.40384C11.7398 5.73254 11.4006 4.98711 11.3734 4.16753C11.146 4.16148 10.9185 4.1579 10.691 4.15679ZM19.8908 5.51779C18.6409 6.99555 17.5395 8.84638 16.789 10.8595C18.167 8.90352 19.8615 7.37785 21.6653 6.30015C21.0776 6.03078 20.4861 5.76997 19.8908 5.51779ZM4.69031 6.12095C3.95267 6.78609 3.22383 7.58443 2.46482 8.345C4.09682 9.31291 5.48688 10.4592 6.62083 11.7575C6.69123 11.7309 6.76235 11.7071 6.83387 11.6853C6.30326 9.86482 5.57609 8.00189 4.69031 6.12095ZM16.4866 12.4129C15.6578 13.4109 14.8775 13.9378 13.8032 14.3582C13.924 14.8232 13.7446 15.357 13.3314 15.7654C13.0884 16.0055 12.783 16.2792 12.3365 16.4571C12.4009 16.4952 12.4667 16.5309 12.5336 16.5644C13.1586 16.8756 14.2626 16.7752 15.2883 16.3097C16.3108 15.8457 17.2242 15.0442 17.5627 14.2322C17.7324 13.7758 17.6113 13.5377 17.3142 13.1886C17.1027 12.9402 16.7939 12.6898 16.4866 12.4129V12.4129ZM7.89013 12.4424C7.34855 12.4375 6.79854 12.5934 6.344 12.9347C5.69754 13.42 5.19918 14.2855 5.19474 15.7557V15.7658L5.19423 15.7759C5.04664 18.8717 5.2751 20.3 5.72772 21.0749C6.12722 21.7589 6.79166 22.0864 7.76362 22.6886C7.80992 22.5672 7.85814 22.418 7.90337 22.2297C8.01846 21.7506 8.11368 21.0926 8.17403 20.3648C8.29478 18.9094 8.27714 17.1617 8.07522 15.9041L7.96852 15.2388L8.6264 15.3899C10.2243 15.7567 11.1384 15.8 11.6691 15.7066C12.1999 15.6131 12.3798 15.4281 12.6912 15.1204C12.9838 14.8313 12.9784 14.7272 12.9164 14.5645C12.8544 14.4017 12.6056 14.1335 12.1835 13.8769C11.3393 13.3637 9.90475 12.8878 8.56388 12.533C8.34395 12.4749 8.11762 12.4445 7.89013 12.4424ZM17.4479 15.9435C16.9419 16.4354 16.3191 16.8392 15.6649 17.1361C14.6044 17.6174 13.4378 17.8375 12.47 17.517C12.1283 17.6439 11.9298 17.7898 11.8297 17.9104C11.6923 18.0761 11.6837 18.1979 11.7303 18.3724C11.7768 18.5469 11.9155 18.7541 12.0871 18.9032C12.2586 19.0523 12.4624 19.1298 12.5399 19.1334C14.905 19.2455 15.9287 18.5682 17.2039 17.7826C17.5758 17.5535 17.7182 17.0895 17.6825 16.6261C17.6647 16.3944 17.5971 16.1766 17.5191 16.0395C17.4997 16.0045 17.4758 15.9722 17.4479 15.9435ZM9.04824 16.4022C9.18607 17.6665 9.18834 19.1416 9.08069 20.4397C9.01766 21.1999 8.92021 21.8912 8.78809 22.4413C8.73062 22.6806 8.66739 22.8929 8.59097 23.0797L16.0056 22.7537C15.9219 22.4435 15.8366 22.1321 15.7513 21.8205C15.4664 21.9151 15.1753 21.9897 14.8799 22.0436L14.8821 22.0805L14.4618 22.1066C14.203 22.1375 13.9335 22.1546 13.654 22.1566L9.41539 22.4194L9.54139 21.834C9.94306 19.9676 9.98011 18.3242 9.73235 16.5264C9.50351 16.4895 9.27541 16.4481 9.04819 16.4022H9.04824ZM10.6642 16.6385C10.8638 18.249 10.8398 19.7861 10.5426 21.4399L11.5163 21.3796C11.3636 21.1548 11.2587 20.9011 11.208 20.6343C11.1425 20.2873 11.1789 19.901 11.4064 19.5817C11.4165 19.5675 11.4273 19.5539 11.4381 19.5403C11.1729 19.2959 10.9515 18.9823 10.8511 18.606C10.7442 18.2053 10.811 17.7148 11.1289 17.3315C11.234 17.2049 11.361 17.0906 11.5102 16.9877C11.3783 16.8828 11.2626 16.7716 11.1627 16.6558C11.0079 16.6568 10.842 16.6511 10.6642 16.6385ZM17.3697 18.7459C16.1841 19.4648 14.8521 20.1518 12.4967 20.0403C12.4199 20.0365 12.3435 20.0262 12.2684 20.0093C12.2061 20.0372 12.1728 20.0726 12.148 20.1075C12.0993 20.1758 12.0706 20.2991 12.102 20.4662C12.1651 20.8004 12.4824 21.1667 12.7778 21.201C14.8696 21.4438 16.3148 20.7609 17.1923 19.9665C17.5967 19.6004 17.6001 19.3663 17.5406 19.1116C17.5108 18.9843 17.4451 18.861 17.3697 18.7459ZM17.0319 21.2204C16.8915 21.3082 16.7473 21.39 16.5999 21.4655C16.6833 21.7707 16.7669 22.0759 16.8494 22.3811L17.8562 22.2009C17.5964 21.9797 17.3932 21.7493 17.23 21.5203C17.1571 21.4179 17.0929 21.3185 17.0319 21.2204Z" fill="#F8F8F8"/>
</svg>
