<svg width="27" height="25" viewBox="0 0 27 25" fill="none" xmlns="http://www.w3.org/2000/svg">
<path d="M17 0C16.4696 0 15.9609 0.210714 15.5858 0.585786C15.2107 0.960859 15 1.46957 15 2V6C15 6.53043 15.2107 7.03914 15.5858 7.41421C15.9609 7.78929 16.4696 8 17 8V11L20.6 8H25C25.5304 8 26.0391 7.78929 26.4142 7.41421C26.7893 7.03914 27 6.53043 27 6V2C27 1.46957 26.7893 0.960859 26.4142 0.585786C26.0391 0.210714 25.5304 0 25 0H17ZM8 5C6.93913 5 5.92172 5.42143 5.17157 6.17157C4.42143 6.92172 4 7.93913 4 9C4 10.0609 4.42143 11.0783 5.17157 11.8284C5.92172 12.5786 6.93913 13 8 13C9.06087 13 10.0783 12.5786 10.8284 11.8284C11.5786 11.0783 12 10.0609 12 9C12 7.93913 11.5786 6.92172 10.8284 6.17157C10.0783 5.42143 9.06087 5 8 5ZM13 15H3C2.20435 15 1.44129 15.3161 0.87868 15.8787C0.316071 16.4413 0 17.2044 0 18C0 20.232 0.918 22.02 2.424 23.23C3.906 24.42 5.894 25 8 25C10.106 25 12.094 24.42 13.576 23.23C15.08 22.02 16 20.232 16 18C16 17.2044 15.6839 16.4413 15.1213 15.8787C14.5587 15.3161 13.7956 15 13 15Z" fill="#F8F8F8"/>
</svg>
