<svg width="105" height="32" viewBox="0 0 105 32" fill="none" xmlns="http://www.w3.org/2000/svg">
<path d="M46.0803 2.85098C46.2266 2.97079 46.3565 3.10887 46.4702 3.26523C46.5839 3.41753 46.6591 3.59622 46.6977 3.80131C46.7342 4.03483 46.651 4.21353 46.4459 4.3374C46.32 4.39831 46.2022 4.40644 46.0885 4.36176C45.9748 4.31912 45.8895 4.22977 45.8367 4.09372C45.7067 3.73227 45.5057 3.44392 45.2356 3.23274C44.9696 3.01749 44.6792 2.83068 44.3665 2.67229C43.668 2.30475 42.9471 2.00625 42.2059 1.77882C41.4627 1.54733 40.7155 1.3463 39.9641 1.17776C38.7072 0.913777 37.034 0.739144 34.9445 0.65792C32.859 0.576695 30.536 0.607154 27.9754 0.747267C25.4127 0.88941 22.7892 1.16151 20.1047 1.56764C17.4243 1.97376 14.8576 2.53421 12.4046 3.24899C9.95163 3.9597 7.79512 4.84505 5.93914 5.90503C4.08721 6.96095 2.70437 8.20978 1.78856 9.64949C1.02505 10.8963 0.87478 12.2142 1.3337 13.6051C1.66469 14.5595 2.14188 15.4246 2.76325 16.2043C3.68312 17.3699 4.70655 18.438 5.83354 19.4127C6.77575 20.2737 7.72811 21.1387 8.69265 22.0038C9.62877 22.8322 10.5649 23.6729 11.503 24.5217C12.5529 25.4863 13.5824 26.461 14.5896 27.4458C14.687 27.5372 14.7845 27.6265 14.882 27.7138C15.4282 28.2215 15.9095 28.788 16.3278 29.4114C16.7542 30.1201 16.8354 30.6704 16.5714 31.0603C16.3115 31.4502 15.812 31.7121 15.0769 31.8482C14.3398 31.9883 13.4849 32.0309 12.5102 31.9781C11.5355 31.9233 10.5547 31.8015 9.56988 31.6126C8.583 31.4218 7.70577 31.1943 6.9382 30.9303C6.17469 30.6643 5.63251 30.3902 5.31371 30.11C4.68422 29.5191 4.6436 28.8997 5.19187 28.2499C5.78075 27.5778 6.50365 27.0904 7.36057 26.7879C8.59518 26.3127 9.83995 26.2741 11.0969 26.6742C11.3406 26.7615 11.5721 26.8772 11.7954 27.0234C11.8157 27.0336 11.836 27.0478 11.8523 27.064C11.9173 27.0965 11.9599 27.1453 11.9822 27.2103C12.0026 27.2752 11.9924 27.3483 11.9498 27.4296C11.8462 27.5473 11.7244 27.5839 11.5842 27.5352C11.4421 27.4864 11.3121 27.4235 11.1944 27.3483C10.3171 26.9138 9.41555 26.8244 8.48959 27.0803C7.56769 27.3341 6.792 27.8377 6.15844 28.5911C5.88228 28.9525 5.86603 29.2693 6.10971 29.5414C6.35744 29.8176 6.73717 30.0491 7.24685 30.2399C7.7606 30.4349 8.27434 30.5851 8.79012 30.6948C9.30996 30.8024 9.69578 30.8755 9.95163 30.9141C10.0044 30.9141 10.043 30.9182 10.0653 30.9303C10.1141 30.9303 10.173 30.9344 10.244 30.9466C10.5689 31.0156 11.0157 31.0928 11.5842 31.174C12.1528 31.2552 12.7376 31.308 13.3387 31.3365C13.9438 31.369 14.4616 31.3283 14.8901 31.2146C15.3226 31.105 15.5663 30.8938 15.6211 30.5811C15.6739 30.2663 15.4343 29.7973 14.8982 29.1759C14.3296 28.52 13.7286 27.8804 13.095 27.259C11.5071 25.7279 9.88259 24.2435 8.22155 22.8079C7.62455 22.2718 7.02755 21.7337 6.42648 21.1915C5.42945 20.298 4.45273 19.3802 3.49427 18.438C2.6008 17.577 1.81699 16.6307 1.13876 15.5951C0.651412 14.8438 0.310269 14.0336 0.11533 13.1665C-0.177079 11.7431 0.0869009 10.4272 0.903209 9.219C1.79668 7.87067 3.09627 6.67667 4.80199 5.63699C6.50771 4.59731 8.48147 3.70994 10.7233 2.97282C12.9691 2.23774 15.3632 1.64074 17.9035 1.18588C20.4418 0.731022 23.0065 0.410185 25.5955 0.219307C28.1886 0.0243674 30.6741 -0.0406123 33.0519 0.0243674C35.4277 0.0852861 37.5802 0.26398 39.5093 0.56045C41.4363 0.858951 43.0182 1.27117 44.2528 1.79506C44.9067 2.05092 45.5158 2.40222 46.0803 2.85098Z" fill="white"/>
<path d="M23.854 19.6094C23.9129 19.6094 23.9698 19.6398 24.0246 19.6987C24.0774 19.7535 24.0936 19.8104 24.0733 19.8693C24.0348 19.9627 23.9921 20.0541 23.9434 20.1455C23.1514 21.4938 22.2397 22.7589 21.2061 23.9386C20.9401 24.2432 20.6477 24.5296 20.3289 24.7996C20.1827 24.9296 20.0121 25.0332 19.8172 25.1083C19.4638 25.2545 19.1917 25.2545 18.9968 25.1083C18.8019 24.9621 18.7145 24.7022 18.7369 24.3285C18.7531 24.2635 18.7653 24.2026 18.7775 24.1417C18.7876 24.0564 18.7958 23.961 18.8019 23.8574C18.812 23.7559 18.7978 23.6442 18.7612 23.5244C18.615 23.6544 18.4729 23.7823 18.3389 23.9062C18.0566 24.1722 17.7825 24.424 17.5185 24.6615C17.2261 24.9377 16.8789 25.0433 16.4788 24.9783C16.2088 24.9296 16.0483 24.7793 15.9996 24.5235C15.9793 24.3123 15.9793 24.1072 15.9996 23.9062C16.1255 22.9924 16.3509 22.1091 16.6819 21.2582C16.7408 21.1242 16.82 21.0125 16.9174 20.9252C17.0352 20.7912 17.1875 20.7546 17.3723 20.8196C17.551 20.8907 17.6241 21.0267 17.5916 21.2257C17.553 21.3882 17.5104 21.5567 17.4616 21.7293C17.4495 21.7903 17.4393 21.8491 17.4292 21.908C17.283 22.434 17.1814 22.8401 17.1286 23.1264C17.0738 23.4147 17.0494 23.6097 17.0555 23.7112C17.0596 23.8148 17.088 23.8473 17.1367 23.8087C17.3418 23.7112 17.5205 23.5813 17.6728 23.4188C17.8231 23.2564 17.9673 23.0899 18.1033 22.9152C18.2109 22.7589 18.3328 22.6066 18.4688 22.4604C18.6029 22.3142 18.7328 22.168 18.8587 22.0217C18.9602 21.8755 19.0719 21.7375 19.1917 21.6075C19.3054 21.4836 19.4374 21.378 19.5897 21.2907C19.7786 21.1933 19.9715 21.2075 20.1664 21.3313C20.2477 21.3923 20.2923 21.4613 20.3045 21.5425C20.3208 21.6197 20.3147 21.7009 20.2883 21.7862C20.2172 22.1111 20.1461 22.4421 20.0771 22.7771C20.0385 22.9396 19.9959 23.102 19.9471 23.2645C19.9187 23.3944 19.8943 23.5285 19.874 23.6625C19.8618 23.7112 19.8618 23.76 19.874 23.8087C19.8842 23.8574 19.9146 23.8899 19.9634 23.9062C19.9999 23.9183 20.0324 23.9183 20.0608 23.9062C20.0933 23.8899 20.1218 23.8696 20.1502 23.8412C20.3065 23.7112 20.4446 23.5691 20.5644 23.4107C20.8243 23.0817 21.0802 22.7528 21.3361 22.4279C21.531 22.1578 21.73 21.8958 21.9371 21.64C22.3595 21.0674 22.7981 20.5069 23.253 19.9586C23.3992 19.7475 23.5982 19.6317 23.854 19.6094Z" fill="white"/>
<path d="M29.9159 22.5704C30.0458 22.6414 30.056 22.8201 29.9484 23.1064C29.7859 23.3176 29.6113 23.5166 29.4285 23.6994C29.2498 23.8842 29.0508 24.0466 28.8356 24.1867C28.8193 24.1867 28.8112 24.1928 28.8112 24.203C28.665 24.3065 28.5127 24.3938 28.3563 24.4629C27.0283 24.9401 26.3521 24.6619 26.3257 23.6263C25.7896 24.0933 25.4323 24.3776 25.2536 24.4791C24.815 24.7391 24.3398 24.8568 23.8321 24.8284C23.4544 24.8081 23.1966 24.6944 23.0605 24.4873C22.9265 24.2761 22.9387 23.9958 23.1011 23.6425C23.3448 23.0861 23.692 22.5866 24.1408 22.148C24.6647 21.6606 25.2475 21.2708 25.8871 20.9784C26.2283 20.8057 26.5877 20.7387 26.9674 20.7753C27.341 20.8037 27.5685 21.0169 27.6497 21.417C27.6822 21.5429 27.6497 21.6505 27.5522 21.7419C27.4324 21.8515 27.2923 21.8759 27.1299 21.815C27.1177 21.815 27.1014 21.8129 27.0811 21.8068C27.0649 21.8028 27.0507 21.7947 27.0405 21.7825C26.8821 21.5611 26.7197 21.4698 26.5532 21.5063C26.3907 21.5388 26.2201 21.6119 26.0414 21.7256C25.1845 22.2251 24.551 22.9176 24.1408 23.805C24.1185 23.8435 24.1022 23.8862 24.0921 23.9349C24.086 23.9837 24.1022 24.0222 24.1408 24.0486C24.2383 24.0811 24.3459 24.0771 24.4657 24.0324C24.5896 23.9837 24.7114 23.9146 24.8312 23.8212C24.9551 23.7298 25.0586 23.6547 25.1399 23.5938C25.15 23.5775 25.1561 23.5694 25.1561 23.5694C25.5622 23.2283 25.9562 22.8831 26.342 22.5297C26.5146 22.347 26.7278 22.2434 26.9837 22.2211C27.3451 22.2211 27.4974 22.3835 27.4385 22.7084C27.406 22.8343 27.3695 22.9562 27.3329 23.0739C27.1867 23.5999 27.1786 23.9085 27.3086 23.9999C27.4426 24.0933 27.6456 24.0933 27.9177 23.9999C28.1939 23.9085 28.4701 23.7359 28.7462 23.4801C29.0224 23.2202 29.2518 22.9846 29.4366 22.7734C29.6255 22.5622 29.7859 22.4952 29.9159 22.5704Z" fill="white"/>
<path d="M34.2271 21.7065C34.1784 22.0863 33.9997 22.336 33.691 22.4538C33.3824 22.5675 33.2808 22.4172 33.3905 21.9989C33.4981 21.5766 33.3093 21.471 32.8219 21.6822C32.3346 21.8893 31.9325 22.1492 31.6198 22.4619C31.1324 22.9615 30.6979 23.4975 30.3202 24.0702C30.2816 24.1189 30.2511 24.1595 30.2308 24.192C30.1232 24.3545 30.0115 24.5068 29.8978 24.6469C29.8288 24.7504 29.7435 24.8154 29.646 24.8418C29.5486 24.8641 29.4511 24.8662 29.3536 24.8499C29.2561 24.8398 29.183 24.8053 29.1343 24.7443C29.0856 24.6794 29.0815 24.6063 29.1181 24.525C29.179 24.3788 29.2521 24.2286 29.3374 24.0702C29.8369 23.1442 30.3405 22.2182 30.8563 21.2923C30.8664 21.2821 30.8725 21.272 30.8725 21.2598C30.9416 21.1136 31.0268 20.9816 31.1243 20.8618C31.238 20.7379 31.3639 20.6872 31.5061 20.7075C31.6523 20.7298 31.7497 20.8171 31.7985 20.9674C31.8574 21.1623 31.9081 21.274 31.9528 21.3004C32.0015 21.3227 32.101 21.3045 32.2533 21.2436C32.5823 21.1197 32.9052 21.0324 33.2199 20.9836C33.5387 20.9349 33.7986 20.9491 33.9997 21.0242C34.2048 21.0953 34.2799 21.3227 34.2271 21.7065Z" fill="white"/>
<path d="M41.8222 22.6535C41.9075 22.7673 41.7979 22.9703 41.4892 23.2627C41.1805 23.5551 40.8496 23.8029 40.4983 24.0019C40.151 24.2029 39.7469 24.3999 39.288 24.5948C38.9834 24.7309 38.6626 24.7776 38.3214 24.7329C37.9803 24.6842 37.8097 24.477 37.8097 24.1075C37.8097 23.7399 37.893 23.3724 38.0615 23.0028C38.2341 22.6292 38.2727 22.4383 38.1752 22.4261C38.0778 22.416 37.8767 22.5053 37.5742 22.6942C36.7822 23.214 36.0472 23.811 35.3649 24.4811C35.1862 24.7045 34.9547 24.8263 34.6663 24.8466C34.5262 24.8466 34.4145 24.8019 34.3333 24.7085C34.2521 24.6172 34.244 24.5197 34.3089 24.4161C34.7922 23.5125 35.2796 22.6211 35.7791 21.7438C35.8928 21.5611 36.0593 21.4474 36.2827 21.4027C36.3741 21.3864 36.4614 21.4169 36.5426 21.492C36.6238 21.5692 36.6645 21.6525 36.6645 21.7438C36.6523 21.8311 36.6157 21.9367 36.5507 22.0606C36.5223 22.1317 36.4959 22.2027 36.4695 22.2718C36.4472 22.3368 36.4391 22.3916 36.4452 22.4342C36.4553 22.4789 36.4898 22.4911 36.5507 22.4749C36.636 22.4322 36.7213 22.3835 36.8025 22.3286C37.0137 22.2109 37.2168 22.0972 37.4117 21.9875C37.5782 21.886 37.7569 21.7966 37.9478 21.7195C38.1367 21.6443 38.3336 21.5895 38.5407 21.557C38.8697 21.5367 39.1032 21.6118 39.2393 21.7844C39.3794 21.9591 39.3956 22.1967 39.288 22.4992C39.1784 22.7754 39.0646 23.0495 38.9469 23.3196C38.7946 23.5754 38.7682 23.7704 38.8656 23.9044C38.9672 24.0344 39.4302 23.88 40.2546 23.4414L40.88 23.0759C41.4648 22.7023 41.7776 22.5622 41.8222 22.6535Z" fill="white"/>
<path d="M48.1971 22.5704C48.3271 22.6414 48.3372 22.8201 48.2296 23.1064C48.0672 23.3176 47.8925 23.5166 47.7098 23.6994C47.5311 23.8842 47.3321 24.0466 47.1168 24.1867C47.1006 24.1867 47.0925 24.1928 47.0925 24.203C46.9463 24.3065 46.794 24.3938 46.6376 24.4629C45.3096 24.9401 44.6334 24.6619 44.607 23.6263C44.0709 24.0933 43.7135 24.3776 43.5348 24.4791C43.0962 24.7391 42.621 24.8568 42.1134 24.8284C41.7357 24.8081 41.4778 24.6944 41.3418 24.4873C41.2077 24.2761 41.2199 23.9958 41.3824 23.6425C41.626 23.0861 41.9733 22.5866 42.422 22.148C42.9459 21.6606 43.5287 21.2708 44.1684 20.9784C44.5095 20.8057 44.8689 20.7387 45.2487 20.7753C45.6223 20.8037 45.8497 21.0169 45.9309 21.417C45.9634 21.5429 45.9309 21.6505 45.8335 21.7419C45.7137 21.8515 45.5736 21.8759 45.4111 21.815C45.3989 21.815 45.3827 21.8129 45.3624 21.8068C45.3461 21.8028 45.3319 21.7947 45.3218 21.7825C45.1634 21.5611 45.0009 21.4698 44.8344 21.5063C44.672 21.5388 44.5014 21.6119 44.3227 21.7256C43.4658 22.2251 42.8322 22.9176 42.422 23.805C42.3997 23.8435 42.3835 23.8862 42.3733 23.9349C42.3672 23.9837 42.3835 24.0222 42.422 24.0486C42.5195 24.0811 42.6271 24.0771 42.7469 24.0324C42.8708 23.9837 42.9926 23.9146 43.1124 23.8212C43.2363 23.7298 43.3399 23.6547 43.4211 23.5938C43.4313 23.5775 43.4373 23.5694 43.4373 23.5694C43.8435 23.2283 44.2374 22.8831 44.6232 22.5297C44.7958 22.347 45.009 22.2434 45.2649 22.2211C45.6264 22.2211 45.7786 22.3835 45.7198 22.7084C45.6873 22.8343 45.6507 22.9562 45.6142 23.0739C45.468 23.5999 45.4598 23.9085 45.5898 23.9999C45.7238 24.0933 45.9269 24.0933 46.199 23.9999C46.4751 23.9085 46.7513 23.7359 47.0275 23.4801C47.3036 23.2202 47.5331 22.9846 47.7179 22.7734C47.9067 22.5622 48.0672 22.4952 48.1971 22.5704Z" fill="white"/>
<path d="M52.7781 13.6184C52.8045 13.5758 52.8634 13.5372 52.9568 13.5047C53.0481 13.4722 53.1436 13.4519 53.2411 13.4397C53.3385 13.4235 53.4218 13.4275 53.4929 13.4478C53.5619 13.4702 53.5924 13.5047 53.5822 13.5534C53.5213 13.8093 53.4299 14.057 53.306 14.3007C53.2939 14.3332 53.2756 14.3738 53.2492 14.4225C52.7882 15.4845 52.3232 16.5384 51.8521 17.5822C51.775 17.7406 51.7079 17.8908 51.6491 18.037C51.4744 18.3944 51.2612 18.829 51.0074 19.3366C50.7251 19.8727 50.4835 20.3661 50.2845 20.8149C50.4733 20.5834 50.715 20.4128 51.0074 20.3032C51.3039 20.1956 51.5292 20.1407 51.6815 20.1407C52.2664 20.1529 52.5913 20.4413 52.6562 21.0098C52.7476 21.6596 52.6319 22.3216 52.307 22.9917C51.9821 23.6578 51.5475 24.202 51.0074 24.6243C50.5566 24.8802 50.1302 24.9939 49.724 24.9655C49.3179 24.933 48.9544 24.736 48.6356 24.3725C48.597 24.3725 48.5585 24.3929 48.5219 24.4294C48.4793 24.4619 48.4326 24.5025 48.3838 24.5512C48.3188 24.6223 48.2518 24.6792 48.1808 24.7218C48.132 24.7442 48.0813 24.7502 48.0264 24.7381C47.9675 24.7279 47.9208 24.7117 47.8884 24.6893C47.7706 24.5878 47.732 24.466 47.7746 24.3238C48.2417 23.1054 48.7859 21.8383 49.4154 20.5225C50.0428 19.2067 50.6703 17.9233 51.2998 16.6725C51.5638 16.1161 51.8277 15.5739 52.0877 15.048C52.1953 14.8429 52.2989 14.6297 52.3963 14.4063C52.5141 14.1525 52.642 13.8905 52.7781 13.6184ZM50.6987 21.1398C50.2703 21.4485 49.9027 21.8221 49.5941 22.2607C49.2854 22.6953 49.1737 23.1542 49.2611 23.6415C49.3037 23.9238 49.4154 24.1248 49.5941 24.2426C49.7768 24.3563 49.9921 24.3137 50.2357 24.1126C50.4794 23.8852 50.7231 23.6009 50.9668 23.2598C51.2104 22.9186 51.4074 22.5531 51.5597 22.1632C51.6775 21.8221 51.7506 21.5256 51.779 21.2698C51.8054 21.0159 51.7384 20.8616 51.576 20.8068C51.4135 20.7479 51.1211 20.8596 50.6987 21.1398Z" fill="white"/>
<path d="M60.71 22.931C60.6125 23.0183 60.509 23.0995 60.4013 23.1746C60.0439 23.3919 59.7211 23.5645 59.4348 23.6945C59.1525 23.8204 58.8195 23.9503 58.4357 24.0844C57.8549 24.259 57.4854 24.2204 57.3229 23.9706C57.1605 23.7229 57.132 23.3757 57.2417 22.931C57.3981 22.3035 57.4874 21.8426 57.5097 21.5502C57.5361 21.2537 57.4407 21.1501 57.2255 21.2415C57.0082 21.3349 56.6102 21.6375 56.0315 22.1512C55.2294 22.8457 54.545 23.6356 53.9765 24.523C53.9074 24.6489 53.8201 24.7484 53.7166 24.8235C53.6089 24.9007 53.4769 24.9372 53.3185 24.9372C53.1723 24.9372 53.0668 24.9007 53.0018 24.8235C52.9327 24.7484 52.9266 24.6428 52.9855 24.5067C53.3165 23.7879 53.6516 23.0751 53.9927 22.3705C54.5775 21.142 55.1563 19.9175 55.7309 18.6992C56.1533 17.7854 56.5716 16.8716 56.9899 15.9619C57.2437 15.4258 57.4935 14.8897 57.7372 14.3537C57.7575 14.311 57.7818 14.2623 57.8103 14.2074C57.8306 14.1486 57.8549 14.0897 57.8834 14.0288C57.9159 13.9699 57.9504 13.9029 57.989 13.8257C58.0255 13.7668 58.0885 13.7181 58.1758 13.6795C58.2672 13.6429 58.3585 13.6186 58.4519 13.6064C58.5433 13.5962 58.6144 13.6023 58.6631 13.6226C58.7322 13.6714 58.7708 13.7262 58.7768 13.7851C58.787 13.8399 58.7789 13.8968 58.7525 13.9557C58.7403 13.9678 58.7362 13.9861 58.7362 14.0125C58.6266 14.3374 58.5108 14.6522 58.387 14.9547C57.6884 16.6503 56.9209 18.3174 56.0883 19.9582C56.0274 20.0719 55.9584 20.2059 55.8771 20.3562C55.7512 20.5795 55.6375 20.7988 55.536 21.0141C55.4324 21.2253 55.3979 21.3674 55.4304 21.4364C55.4669 21.5075 55.6335 21.4527 55.9259 21.274C56.0111 21.209 56.0924 21.1481 56.1695 21.0872C56.401 20.9369 56.6285 20.7907 56.8518 20.6486C57.0508 20.5186 57.2742 20.4496 57.5179 20.4374C58.0966 20.3947 58.4235 20.6567 58.5007 21.2253C58.5271 21.4486 58.5169 21.67 58.4682 21.8913C58.4235 22.1147 58.3728 22.334 58.3139 22.5492C58.3017 22.6101 58.2915 22.669 58.2814 22.7279C58.1839 23.1076 58.2103 23.3249 58.3626 23.3777C58.5129 23.4325 58.724 23.4021 58.9962 23.2884C59.2723 23.1706 59.5505 23.0284 59.8328 22.866C60.0277 22.7645 60.1983 22.6771 60.3445 22.6061C60.4907 22.537 60.5983 22.5066 60.6694 22.5167C60.8034 22.5391 60.8663 22.5939 60.8562 22.6792C60.844 22.7665 60.7953 22.8497 60.71 22.931Z" fill="white"/>
<path d="M64.4609 23.3059C64.1624 23.6531 63.8111 23.976 63.405 24.2725C63.0029 24.5649 62.5481 24.7639 62.0404 24.8654C61.5307 24.9629 61.1368 24.9263 60.8546 24.7517C60.5743 24.573 60.5195 24.1811 60.6921 23.5739C60.9155 22.9404 61.216 22.3393 61.6018 21.7707C61.6871 21.653 61.815 21.5656 61.9836 21.5108C62.1074 21.4844 62.213 21.5068 62.3004 21.5758C62.3917 21.6469 62.4263 21.7342 62.4059 21.8357C62.3247 22.0367 62.2313 22.2378 62.1298 22.4368C62.0323 22.6317 61.9673 22.7617 61.9348 22.8267C61.7399 23.18 61.6039 23.5496 61.5287 23.9394C61.5287 24.1567 61.8232 24.1709 62.4141 23.98C63.009 23.7851 63.5857 23.4318 64.1442 22.916C64.7005 22.3962 64.9666 22.2459 64.9402 22.4611C64.9178 22.6723 64.7574 22.9546 64.4609 23.3059ZM63.0151 20.528C62.9867 20.5503 62.9298 20.5767 62.8446 20.6092C62.7572 20.6377 62.6659 20.658 62.5684 20.6742C62.4709 20.6864 62.3938 20.6701 62.341 20.6255C62.2861 20.5828 62.2841 20.4935 62.3328 20.3574C62.4181 20.1259 62.5115 19.9229 62.609 19.7482C62.7065 19.5756 62.8324 19.3827 62.9908 19.1715C63.0882 19.0802 63.1938 19.0314 63.3075 19.0253C63.4253 19.0152 63.5228 19.0457 63.5999 19.1147C63.6812 19.1797 63.7015 19.2751 63.6649 19.399C63.5451 19.8376 63.3278 20.2153 63.0151 20.528Z" fill="white"/>
<path d="M69.2604 22.5898C68.3873 22.9147 67.7598 23.1807 67.376 23.3858C67.0877 23.5279 66.9232 23.6436 66.8805 23.735C66.842 23.8223 66.8745 23.9868 66.978 24.2305C66.978 24.2427 66.9882 24.2589 67.0105 24.2792C67.1283 24.5777 67.1994 24.8844 67.2217 25.1971C67.2582 25.8306 66.7181 26.2753 65.5972 26.5292C64.4824 26.785 63.7351 26.7931 63.3554 26.5535C62.9777 26.3159 62.8599 26.0154 63.0061 25.6519C63.1523 25.2905 63.5341 24.9209 64.1514 24.5473C64.7646 24.1696 65.1728 23.8954 65.3779 23.7269C65.583 23.5604 65.6459 23.3756 65.5647 23.1746C65.5363 23.0994 65.5078 23.0263 65.4754 22.9553C65.3982 22.7827 65.3231 22.606 65.2479 22.4273C65.1017 22.0923 65.0408 21.7653 65.0611 21.4445C65.0835 21.1257 65.2033 20.8576 65.4185 20.6404C65.6337 20.419 65.9729 20.2992 66.4338 20.283C66.6937 20.2728 66.9252 20.3073 67.1323 20.3886C67.3374 20.4698 67.4999 20.6201 67.6197 20.8353C67.7212 20.9815 67.6928 21.1176 67.5303 21.2414C67.4268 21.3227 67.3131 21.3348 67.1892 21.2739C67.112 21.2414 67.0369 21.1927 66.9618 21.1277C66.9618 21.1115 66.9618 21.1033 66.9618 21.1033C66.9293 21.083 66.8988 21.0607 66.8724 21.0384C66.8399 20.9896 66.8034 20.9531 66.7668 20.9247C66.6206 20.817 66.4744 20.7845 66.3282 20.8272C66.182 20.8719 66.0724 20.9815 66.0033 21.1602C65.9546 21.3064 65.9302 21.4567 65.9302 21.6069C65.9404 21.7856 65.981 21.9623 66.0521 22.1349C66.1008 22.2385 66.1434 22.3359 66.182 22.4273C66.2795 22.671 66.3566 22.8395 66.4176 22.9309C66.4765 23.0182 66.5496 23.0568 66.6369 23.0446C66.7222 23.0284 67.508 22.7481 68.9924 22.1999C69.3112 22.0983 69.4005 22.2283 69.2604 22.5898ZM65.6703 25.7575C66.0602 25.6276 66.2226 25.3676 66.1576 24.9778C66.1576 24.9514 66.1516 24.9209 66.1414 24.8884C66.1191 24.6772 66.0764 24.5148 66.0114 24.4011C65.9465 24.2874 65.7962 24.2934 65.5647 24.4173C64.9921 24.7422 64.4601 25.124 63.9727 25.5626C63.9402 25.6012 63.9077 25.6357 63.8752 25.6682C63.8752 25.6682 63.8712 25.6763 63.859 25.6925C63.8265 25.7372 63.8224 25.788 63.8427 25.8469C63.8651 25.9017 63.9158 25.9281 63.9971 25.9281C64.5656 26.0154 65.1241 25.9585 65.6703 25.7575Z" fill="white"/>
<path d="M76.5069 22.931C76.4094 23.0183 76.3058 23.0995 76.1982 23.1746C75.8408 23.3919 75.518 23.5645 75.2316 23.6945C74.9494 23.8204 74.6164 23.9503 74.2326 24.0844C73.6518 24.259 73.2822 24.2204 73.1198 23.9706C72.9574 23.7229 72.9289 23.3757 73.0386 22.931C73.1949 22.3035 73.2843 21.8426 73.3066 21.5502C73.333 21.2537 73.2376 21.1501 73.0223 21.2415C72.8051 21.3349 72.4071 21.6375 71.8283 22.1512C71.0262 22.8457 70.3419 23.6356 69.7733 24.523C69.7043 24.6489 69.617 24.7484 69.5134 24.8235C69.4058 24.9007 69.2738 24.9372 69.1154 24.9372C68.9692 24.9372 68.8636 24.9007 68.7986 24.8235C68.7296 24.7484 68.7235 24.6428 68.7824 24.5067C69.1134 23.7879 69.4484 23.0751 69.7896 22.3705C70.3744 21.142 70.9531 19.9175 71.5278 18.6992C71.9502 17.7854 72.3685 16.8716 72.7868 15.9619C73.0406 15.4258 73.2904 14.8897 73.534 14.3537C73.5544 14.311 73.5787 14.2623 73.6071 14.2074C73.6275 14.1486 73.6518 14.0897 73.6802 14.0288C73.7127 13.9699 73.7473 13.9029 73.7858 13.8257C73.8224 13.7668 73.8853 13.7181 73.9727 13.6795C74.064 13.6429 74.1554 13.6186 74.2488 13.6064C74.3402 13.5962 74.4113 13.6023 74.46 13.6226C74.529 13.6714 74.5676 13.7262 74.5737 13.7851C74.5839 13.8399 74.5758 13.8968 74.5494 13.9557C74.5372 13.9678 74.5331 13.9861 74.5331 14.0125C74.4235 14.3374 74.3077 14.6522 74.1838 14.9547C73.4853 16.6503 72.7177 18.3174 71.8852 19.9582C71.8243 20.0719 71.7552 20.2059 71.674 20.3562C71.5481 20.5795 71.4344 20.7988 71.3329 21.0141C71.2293 21.2253 71.1948 21.3674 71.2273 21.4364C71.2638 21.5075 71.4303 21.4527 71.7227 21.274C71.808 21.209 71.8892 21.1481 71.9664 21.0872C72.1979 20.9369 72.4253 20.7907 72.6487 20.6486C72.8477 20.5186 73.0711 20.4496 73.3147 20.4374C73.8935 20.3947 74.2204 20.6567 74.2976 21.2253C74.324 21.4486 74.3138 21.67 74.2651 21.8913C74.2204 22.1147 74.1696 22.334 74.1107 22.5492C74.0986 22.6101 74.0884 22.669 74.0782 22.7279C73.9808 23.1076 74.0072 23.3249 74.1595 23.3777C74.3097 23.4325 74.5209 23.4021 74.793 23.2884C75.0692 23.1706 75.3474 23.0284 75.6296 22.866C75.8246 22.7645 75.9952 22.6771 76.1414 22.6061C76.2876 22.537 76.3952 22.5066 76.4663 22.5167C76.6003 22.5391 76.6632 22.5939 76.6531 22.6792C76.6409 22.7665 76.5922 22.8497 76.5069 22.931Z" fill="white"/>
<path d="M81.6813 23.6136C81.3605 23.9284 80.9868 24.1984 80.5604 24.4259C80.138 24.6492 79.7806 24.7954 79.4882 24.8645C79.1999 24.9295 78.9054 24.9681 78.6029 24.9782C78.1155 25.0005 77.6688 24.9356 77.2627 24.7833C76.5926 24.5132 76.359 23.9954 76.5641 23.2319C76.7591 22.5719 77.151 22.0582 77.7419 21.6886C78.3308 21.315 78.944 21.1342 79.5776 21.1444C79.5776 21.1444 79.5816 21.1444 79.5938 21.1444C79.7502 21.1342 79.9025 21.1444 80.0487 21.1769C80.2923 21.2703 80.4467 21.4165 80.5117 21.6155C80.5766 21.8104 80.532 22.0297 80.3817 22.2734C80.0243 22.8095 79.541 23.11 78.9359 23.175C78.5338 23.2136 78.144 23.1913 77.7663 23.11C77.6952 23.0999 77.6302 23.1222 77.5713 23.175C77.5165 23.2238 77.484 23.2847 77.4739 23.3537C77.3642 23.8309 77.5104 24.1335 77.9125 24.2634C78.41 24.4381 78.9298 24.4381 79.472 24.2634C80.0893 24.0746 80.6761 23.7111 81.2346 23.175C81.7909 22.6389 82.1138 22.3912 82.2011 22.4278C82.2864 22.4602 82.3148 22.5618 82.2824 22.7283C82.2011 23.0044 82.0001 23.3009 81.6813 23.6136ZM78.148 22.2734C78.1155 22.312 78.0912 22.3546 78.0749 22.4034C78.0627 22.4521 78.083 22.4968 78.1318 22.5333C78.3267 22.643 78.5379 22.6836 78.7653 22.6552C78.9928 22.6227 79.1836 22.5374 79.342 22.3953C79.4984 22.2551 79.5654 22.0825 79.5451 21.8754C79.5288 21.8064 79.4882 21.7617 79.4232 21.7455C79.3623 21.7252 79.3034 21.7191 79.2446 21.7292C78.8323 21.8003 78.4668 21.981 78.148 22.2734Z" fill="white"/>
<path d="M89.0675 22.5664C89.1102 22.6273 89.1203 22.6883 89.1 22.7532C89.0777 22.8142 89.035 22.867 88.9701 22.9157C88.5903 23.2568 88.1659 23.531 87.6948 23.7361C86.8866 24.1158 86.0419 24.3493 85.1606 24.4346C84.4621 24.5057 83.7961 24.4001 83.1625 24.1178C82.929 24.0163 82.7584 24.0691 82.6508 24.2803C82.4944 24.5889 82.332 24.8955 82.1634 25.1981C82.0781 25.3727 81.9847 25.5474 81.8873 25.7261C81.8771 25.7484 81.867 25.7728 81.8548 25.7992C81.8182 25.8641 81.7817 25.9251 81.7492 25.9779C81.7126 26.0327 81.6477 26.0713 81.5543 26.0916C81.5116 26.1038 81.4649 26.1078 81.4162 26.1078C81.3674 26.1078 81.3228 26.0977 81.2781 26.0753C81.2456 26.0489 81.2192 26.0144 81.1969 25.9697C81.1705 25.921 81.1562 25.8702 81.1562 25.8154C81.1948 25.659 81.2517 25.5027 81.3268 25.3443C81.4791 24.993 81.6314 24.6458 81.7817 24.3046C82.1553 23.4274 82.5513 22.5644 82.9676 21.7136C84.1088 19.3641 85.1972 16.9903 86.2328 14.5902C86.3181 14.3587 86.4318 14.1515 86.5739 13.9729C86.6876 13.8388 86.8379 13.8023 87.0288 13.8673C87.2278 13.9485 87.2907 14.0906 87.2156 14.2896C87.0796 14.6958 86.9354 15.108 86.7851 15.5242C86.0155 17.4208 85.1728 19.2809 84.259 21.1044C84.0641 21.5003 83.993 21.7501 84.0478 21.8516C84.1067 21.9552 84.2367 21.9633 84.4377 21.876C84.6428 21.7907 84.8845 21.6729 85.1606 21.5267C85.3495 21.4191 85.5424 21.3237 85.7373 21.2425C85.7739 21.21 85.8104 21.1897 85.8429 21.1775C86.0744 21.0475 86.3262 20.9785 86.5983 20.9663C86.7059 20.9663 86.7851 21.013 86.8339 21.1044C86.8603 21.1653 86.8603 21.2181 86.8339 21.2668C86.8115 21.3115 86.7811 21.344 86.7445 21.3643C86.3262 21.608 85.9038 21.8415 85.4774 22.0628C85.2764 22.1562 85.0652 22.2578 84.8438 22.3715C84.6266 22.469 84.4134 22.5725 84.2022 22.6801C84.06 22.7675 83.928 22.8649 83.8042 22.9725C83.5219 23.265 83.5524 23.5086 83.8935 23.7036C84.1737 23.8234 84.458 23.8884 84.7464 23.8985C85.0327 23.9046 85.317 23.8701 85.5992 23.7929C86.4704 23.598 87.2907 23.2812 88.0603 22.8426C88.1192 22.8101 88.1822 22.7817 88.2472 22.7532C88.3873 22.6558 88.5396 22.5725 88.702 22.5014C88.7609 22.475 88.8259 22.4649 88.897 22.469C88.9721 22.475 89.0289 22.5075 89.0675 22.5664Z" fill="white"/>
<path d="M95.3455 22.5704C95.4755 22.6414 95.4857 22.8201 95.378 23.1064C95.2156 23.3176 95.041 23.5166 94.8582 23.6994C94.6795 23.8842 94.4805 24.0466 94.2653 24.1867C94.249 24.1867 94.2409 24.1928 94.2409 24.203C94.0947 24.3065 93.9424 24.3938 93.786 24.4629C92.458 24.9401 91.7818 24.6619 91.7554 23.6263C91.2193 24.0933 90.8619 24.3776 90.6833 24.4791C90.2446 24.7391 89.7695 24.8568 89.2618 24.8284C88.8841 24.8081 88.6262 24.6944 88.4902 24.4873C88.3562 24.2761 88.3684 23.9958 88.5308 23.6425C88.7745 23.0861 89.1217 22.5866 89.5705 22.148C90.0944 21.6606 90.6772 21.2708 91.3168 20.9784C91.658 20.8057 92.0174 20.7387 92.3971 20.7753C92.7707 20.8037 92.9982 21.0169 93.0794 21.417C93.1119 21.5429 93.0794 21.6505 92.9819 21.7419C92.8621 21.8515 92.722 21.8759 92.5595 21.815C92.5474 21.815 92.5311 21.8129 92.5108 21.8068C92.4946 21.8028 92.4803 21.7947 92.4702 21.7825C92.3118 21.5611 92.1494 21.4698 91.9828 21.5063C91.8204 21.5388 91.6498 21.6119 91.4711 21.7256C90.6142 22.2251 89.9807 22.9176 89.5705 23.805C89.5481 23.8435 89.5319 23.8862 89.5217 23.9349C89.5157 23.9837 89.5319 24.0222 89.5705 24.0486C89.6679 24.0811 89.7756 24.0771 89.8954 24.0324C90.0192 23.9837 90.1411 23.9146 90.2609 23.8212C90.3848 23.7298 90.4883 23.6547 90.5695 23.5938C90.5797 23.5775 90.5858 23.5694 90.5858 23.5694C90.9919 23.2283 91.3858 22.8831 91.7717 22.5297C91.9443 22.347 92.1575 22.2434 92.4133 22.2211C92.7748 22.2211 92.9271 22.3835 92.8682 22.7084C92.8357 22.8343 92.7992 22.9562 92.7626 23.0739C92.6164 23.5999 92.6083 23.9085 92.7382 23.9999C92.8723 24.0933 93.0753 24.0933 93.3474 23.9999C93.6236 23.9085 93.8998 23.7359 94.1759 23.4801C94.4521 23.2202 94.6815 22.9846 94.8663 22.7734C95.0552 22.5622 95.2156 22.4952 95.3455 22.5704Z" fill="white"/>
<path d="M104.344 22.6379C104.538 22.5201 104.689 22.4896 104.798 22.5485C104.912 22.6094 104.871 22.78 104.677 23.0602C104.433 23.3912 103.996 23.7405 103.369 24.108C102.739 24.4776 102.185 24.64 101.704 24.5954C101.227 24.5466 101.088 24.1933 101.289 23.5313C101.488 22.8653 101.598 22.4917 101.614 22.4104C101.631 22.3292 101.614 22.2845 101.566 22.2723C101.521 22.2622 101.413 22.3191 101.241 22.4429C100.741 22.7841 100.258 23.1455 99.7868 23.5232C99.5797 23.6755 99.3766 23.838 99.1776 24.0106C99.0578 24.1202 98.9299 24.2299 98.7959 24.3436C98.7959 24.3436 98.7898 24.3497 98.7796 24.3598C98.6334 24.502 98.4568 24.5954 98.2517 24.6441C98.1542 24.6766 98.0506 24.6888 97.943 24.6766C97.8395 24.6664 97.7521 24.6258 97.6831 24.5548C97.6019 24.4735 97.5714 24.3882 97.5937 24.2948C97.6141 24.2035 97.6831 24.0674 97.7968 23.8887C97.9146 23.706 98.0445 23.5049 98.1867 23.2877C98.3268 23.0663 98.406 22.9303 98.4222 22.8815C98.4385 22.8328 98.4304 22.782 98.3979 22.7272C98.3593 22.6785 98.3166 22.6663 98.2679 22.6866C98.2232 22.7028 98.0486 22.8226 97.74 23.044C97.4354 23.2613 97.0211 23.5679 96.4972 23.9618C96.2535 24.1405 96.0139 24.3273 95.7824 24.5223C95.7215 24.5832 95.6586 24.64 95.5875 24.6928C95.4149 24.835 95.226 24.9101 95.0189 24.9203C94.8727 24.9325 94.7651 24.9 94.694 24.8228C94.6189 24.7477 94.6047 24.6421 94.6534 24.506C94.6859 24.4086 94.7306 24.3172 94.7834 24.2299C94.8118 24.1933 94.8301 24.1547 94.8402 24.1161C95.2788 23.2349 95.7093 22.3454 96.1317 21.452C96.1419 21.4317 96.152 21.4012 96.1642 21.3626C96.2129 21.2713 96.2637 21.1799 96.3185 21.0865C96.4485 20.9464 96.6048 20.8997 96.7896 20.9484C97.0008 21.0093 97.082 21.1311 97.0333 21.3139C96.9297 21.5901 96.8323 21.8642 96.7409 22.1343C96.6922 22.2541 96.6394 22.3759 96.5866 22.4998C96.5053 22.7171 96.4769 22.8551 96.5053 22.914C96.5378 22.9749 96.6759 22.9343 96.9196 22.7922C97.0861 22.6785 97.2485 22.5688 97.4069 22.4592C97.6019 22.3251 97.7907 22.2033 97.9755 22.0937C98.2557 21.9211 98.5441 21.7748 98.8365 21.655C98.9827 21.5901 99.1309 21.5454 99.2832 21.517C99.4335 21.4845 99.5756 21.521 99.7056 21.6226C99.8071 21.7038 99.8518 21.7992 99.8355 21.9068C99.8234 22.0104 99.797 22.1079 99.7543 22.1992C99.6731 22.384 99.6365 22.4998 99.6487 22.5485C99.665 22.5972 99.7076 22.6094 99.7787 22.581C99.8538 22.5485 99.9818 22.4795 100.16 22.3698C100.343 22.2561 100.542 22.1343 100.753 22.0043C101.017 21.8317 101.298 21.6672 101.59 21.5088C101.834 21.3525 102.094 21.257 102.37 21.2245C102.754 21.1921 102.91 21.3444 102.841 21.6794C102.77 22.0165 102.634 22.4165 102.435 22.8815C102.24 23.3425 102.219 23.6247 102.378 23.7263C102.534 23.8298 102.884 23.6857 103.426 23.2958C103.966 22.9059 104.272 22.6866 104.344 22.6379Z" fill="white"/>
</svg>
