<svg width="69" height="83" viewBox="0 0 69 83" fill="none" xmlns="http://www.w3.org/2000/svg">
<path fill-rule="evenodd" clip-rule="evenodd" d="M64.4766 74.5891C64.4766 61.2727 53.6815 50.4688 40.3652 50.4688L29.1234 50.4688V74.5906C29.1234 76.7997 30.9143 78.5906 33.1234 78.5906H60.4766C62.6857 78.5906 64.4766 76.7982 64.4766 74.5891Z" fill="#DFDFDF"/>
<path fill-rule="evenodd" clip-rule="evenodd" d="M60.4609 74.5703L34.7496 74.5703V77.7842H60.4609L60.4609 74.5703Z" fill="#D1D1D1"/>
<path fill-rule="evenodd" clip-rule="evenodd" d="M27.5726 78.5938L25.9105 82.6112H33.9453L32.5529 78.5938H27.5726Z" fill="#DFDFDF"/>
<path fill-rule="evenodd" clip-rule="evenodd" d="M54.0882 78.5938L52.4261 82.6112H60.4609L59.0686 78.5938H54.0882Z" fill="#F1F1F1"/>
<path fill-rule="evenodd" clip-rule="evenodd" d="M2.65856 78.5938L0.996447 82.6112H9.03125L7.63887 78.5938H2.65856Z" fill="#DFDFDF"/>
<path fill-rule="evenodd" clip-rule="evenodd" d="M45.1875 36.3393C45.1875 27.8536 38.4051 20.9241 29.9214 20.7422V52.8814H45.1875V36.3393Z" fill="#DFDFDF"/>
<path fill-rule="evenodd" clip-rule="evenodd" d="M41.1719 41.8221C41.1719 30.18 31.7341 20.7422 20.092 20.7422C9.54658 20.7422 0.997856 29.2909 0.997856 39.8363V51.9377C0.997856 52.9026 1.78011 53.6849 2.74506 53.6849H41.1719L41.1719 41.8221Z" fill="#F2F2F2"/>
<path fill-rule="evenodd" clip-rule="evenodd" d="M12.25 26.6446C12.25 23.3848 9.60742 20.7422 6.34763 20.7422C3.39492 20.7422 1.00128 23.1358 1.00128 26.0885V48.7238C1.00128 49.6887 1.78352 50.471 2.74848 50.471H12.25V26.6446Z" fill="#DFDFDF"/>
<path fill-rule="evenodd" clip-rule="evenodd" d="M60.4609 66.2797C60.4609 59.3209 54.8197 53.6797 47.8609 53.6797H30.7322V74.5702H60.4609V66.2797Z" fill="#F2F2F2"/>
<path fill-rule="evenodd" clip-rule="evenodd" d="M30.0591 18.453C26.1201 17.5309 25.8607 12.0956 28.8554 10.2102C25.767 3.70187 32.909 -2.76007 37.8012 1.22512C41.0084 -0.154969 43.6737 5.23041 40.6893 9.41304C41.9406 16.5947 39.394 18.4511 34.8033 18.53L30.0591 18.453Z" fill="#33373E"/>
<path fill-rule="evenodd" clip-rule="evenodd" d="M30.1094 17.1531C30.1094 17.1531 32.0255 16.7009 32.092 13.5446C32.1585 10.3883 32.1118 9.31094 32.1118 9.31094L36.3325 9.23438C36.3325 9.23438 36.3785 12.752 36.3791 14.0243C36.3809 17.4416 38.7495 17.1531 38.7495 17.1531C38.7495 17.1531 38.2571 19.924 34.4327 20.1401C31.4466 20.3092 30.1094 17.1531 30.1094 17.1531Z" fill="#EDC2C2"/>
<path fill-rule="evenodd" clip-rule="evenodd" d="M31.1281 7.73837C29.2453 7.66513 29.5524 10.436 31.5083 10.4323C31.5083 10.4323 32.6443 14.3685 36.5885 14.3685C39.7916 14.3685 40 9.78074 40.029 8.86555C40.0603 7.88972 40.0642 4.68389 40.0642 4.68389L31.0548 4.67969L31.1281 7.73837Z" fill="#FFD7D7"/>
<path d="M35.8276 11.7256C35.8276 11.7256 36.7671 12.5253 37.8551 11.7765" stroke="#F77B7B" stroke-width="1.5" stroke-linecap="round"/>
<path d="M36.4482 12.6461C36.7405 12.7817 37.0219 12.7916 37.2731 12.6564" stroke="#F49494" stroke-linecap="round"/>
<path d="M31.3197 9.23061C31.339 8.78614 31.2042 8.43315 30.7532 8.36222" stroke="#F77B7B" stroke-linecap="round"/>
<path fill-rule="evenodd" clip-rule="evenodd" d="M30.8305 7.39326C30.8305 7.39326 31.8626 8.78536 32.0716 8.79276C32.2806 8.80015 32.3538 6.98226 32.3538 6.98226C33.6198 6.88504 36.8237 6.24366 37.609 4.7495C38.1583 6.06786 39.2082 6.65346 39.898 6.541L40.0288 9.34187L40.3508 3.71094H30.5781L30.8305 7.39326Z" fill="#33373E"/>
<path fill-rule="evenodd" clip-rule="evenodd" d="M49.3968 72.8119C49.3968 72.8119 47.7077 76.2415 49.0924 77.3223C50.4792 78.4033 54.1423 80.4289 54.1423 80.4289L44.4375 79.8158L46.5947 72.3359L49.3968 72.8119Z" fill="#FFD7D7"/>
<path fill-rule="evenodd" clip-rule="evenodd" d="M45.3699 76.079C45.8488 76.1353 45.3373 77.7562 46.3743 77.8795C47.4091 78.0026 47.9121 76.4669 49.0865 76.9537C50.2609 77.4406 54.544 79.9578 54.7126 80.9868C54.8834 82.0156 53.2876 82.3184 51.0992 82.086C48.9107 81.8537 48.5074 81.071 46.8645 81.3863C45.2236 81.7013 43.9945 81.1991 44.0486 79.9938C44.1027 78.7887 44.8909 76.0229 45.3699 76.079Z" fill="#2B2E35"/>
<path fill-rule="evenodd" clip-rule="evenodd" d="M49.6257 77.2031C49.406 77.5343 49.5142 77.9823 49.8608 78.1767L52.1023 79.4342C52.394 79.5978 52.7481 79.6049 53.0459 79.4529L53.172 79.3886C52.4661 78.8747 51.8889 78.4885 51.2511 78.1094C50.7614 77.8183 50.2193 77.5182 49.6257 77.2031Z" fill="white" fill-opacity="0.540975"/>
<path fill-rule="evenodd" clip-rule="evenodd" d="M34.7739 42.5867C37.7119 42.7186 54.0644 46.3545 57.0353 46.9722C60.0063 47.5899 62.518 50.9324 60.2525 54.8029C57.708 59.1477 51.1427 71.4867 49.5487 74.2682C48.7597 75.645 44.7795 74.8731 45.7144 72.5623C47.4573 68.2547 48.2667 57.4334 52.7103 53.4878C52.7103 53.4878 37.7667 56.1023 31.3117 53.1075C26.6204 50.9305 27.6817 42.2679 34.7739 42.5867Z" fill="#33373E"/>
<path fill-rule="evenodd" clip-rule="evenodd" d="M55.5939 25.1207C55.5939 25.1207 55.5607 22.7174 56.397 21.4615C57.2332 20.2055 57.2664 18.8714 57.8993 18.9151C58.5321 18.9588 57.9055 22.0597 57.9055 22.0597C57.9055 22.0597 58.7085 21.7513 59.2854 21.3612C59.8622 20.9711 61.6115 19.048 62.0202 19.3888C62.7133 19.9694 61.5969 23.2448 60.989 23.8996C60.3789 24.5546 57.0464 26.7086 57.0464 26.7086L55.5939 25.1207Z" fill="#FFD7D7"/>
<path fill-rule="evenodd" clip-rule="evenodd" d="M37.5371 23.6798C38.9038 26.8665 41.4063 32.7206 42.4379 34.4671C43.7308 36.6544 45.7696 37.618 48.1566 35.9952C50.6647 34.29 57.5711 27.639 57.7736 26.1324C57.9743 24.6258 56.2839 22.8182 54.7544 23.7541C53.2248 24.69 46.8694 30.0069 46.8694 30.0069C46.8694 30.0069 44.3044 23.3972 42.2411 19.5682C40.4541 16.2556 35.4567 18.8352 37.5371 23.6798Z" fill="#400120"/>
<path fill-rule="evenodd" clip-rule="evenodd" d="M46.8984 30.0123C46.8984 30.0123 47.5873 32.3613 47.7484 32.2253C47.9094 32.0893 47.6253 29.3984 47.6253 29.3984L46.8984 30.0123Z" fill="black" fill-opacity="0.302803"/>
<path d="M63.813 20.6185C64.2226 19.3579 63.5328 18.0039 62.2722 17.5943L61.6925 17.406C60.4319 16.9964 59.0779 17.6862 58.6683 18.9469L56.7907 24.7256C56.3811 25.9862 57.071 27.3402 58.3316 27.7498L58.9113 27.9381C60.1719 28.3477 61.5258 27.6578 61.9354 26.3972L63.813 20.6185Z" fill="#7596FF"/>
<rect width="5.40946" height="10.8761" rx="2.4" transform="matrix(-0.951057 -0.309017 -0.309017 0.951057 64.2109 18.0781)" fill="#93C2F9"/>
<path d="M63.1738 18.146L62.7836 18.0192C62.7041 17.9934 62.6193 18.0295 62.5809 18.101L62.5688 18.1294C62.5396 18.2193 62.4434 18.2686 62.354 18.2395L60.4726 17.6282C60.3931 17.6024 60.3457 17.5233 60.3566 17.4429L60.3635 17.4128C60.3927 17.3229 60.3439 17.2265 60.2545 17.1974L59.8663 17.0713C59.5779 16.9776 59.2689 17.124 59.1537 17.4005L59.1369 17.4458L56.4113 25.8597C56.2929 26.227 56.4924 26.6206 56.8573 26.7398L59.9441 27.7428C60.2933 27.8569 60.668 27.6775 60.8043 27.3403L60.8214 27.2933C60.8215 27.2931 60.8215 27.2929 60.821 27.2925L63.5461 18.8805C63.6454 18.5739 63.4788 18.2451 63.1738 18.146Z" fill="#E6F3FF"/>
<path fill-rule="evenodd" clip-rule="evenodd" d="M23.875 19.8405C23.875 19.8405 27.1686 30.9271 27.2661 33.0257C27.3636 35.1245 24.5723 41.2929 25.0476 42.852C26.1433 46.4549 40.1332 48.0062 40.6677 43.1595C40.917 40.8992 40.3982 38.8705 40.9959 36.2071C41.5915 33.5437 43.9857 29.5859 42.6278 25.8649C41.2698 22.1438 41.6337 18.7013 40.6624 18.0506C39.6912 17.3999 37.4207 16.7089 37.4207 16.7089C36.3167 18.3423 32.5893 18.3185 30.8108 16.5938C30.8108 16.5938 26.3924 17.4554 23.875 19.8405Z" fill="#400120"/>
<path fill-rule="evenodd" clip-rule="evenodd" d="M26.8299 21.6341C29.0253 25.1366 29.0187 31.2348 30.1978 32.0334C31.3769 32.8321 35.966 32.0483 35.966 32.6808C35.966 33.3133 29.6241 39.1096 30.6652 41.8805C31.2104 43.3314 31.0625 44.6294 30.2216 45.7745L29.9471 45.7144C27.4484 45.1467 25.4395 44.1273 25.051 42.8501C24.5758 41.291 27.6891 35.1226 27.5915 33.0238C27.5087 31.2423 24.8909 22.9843 24.1016 20.5289C24.7442 19.3891 25.6535 19.7574 26.8299 21.6341Z" fill="black" fill-opacity="0.199355"/>
<path fill-rule="evenodd" clip-rule="evenodd" d="M30.5703 30.9269C30.5703 30.9269 33.3445 28.4587 34.1937 28.1722C35.0429 27.8858 40.0167 27.5417 39.9852 28.1889C39.9496 28.8824 37.2782 28.8425 37.0014 29.1836C36.7246 29.5246 36.6617 31.8562 35.6154 32.118C34.5711 32.3798 31.4405 32.8311 31.4405 32.8311L30.5703 30.9269Z" fill="#FFD7D7"/>
<path fill-rule="evenodd" clip-rule="evenodd" d="M23.192 20.478C20.2692 24.6247 17.7739 30.9412 16.816 33.4039C15.8582 35.8665 16.8244 39.5809 21.0363 38.8517C25.2405 38.1244 31.9299 34.1725 32.67 33.0197C33.4102 31.8669 32.2857 29.7692 30.8698 30.0438C29.558 30.2978 23.0511 33.0793 23.0511 33.0793C23.0511 33.0793 27.2372 25.62 28.2594 23.6203C29.9669 20.2808 25.7664 16.8243 23.192 20.478Z" fill="#400120"/>
<path fill-rule="evenodd" clip-rule="evenodd" d="M23.1183 33.0307C23.1183 33.0307 20.9257 34.1257 21.1931 33.6665C21.4605 33.2072 23.955 31.5937 23.955 31.5937L23.1183 33.0307Z" fill="black" fill-opacity="0.302803"/>
<path fill-rule="evenodd" clip-rule="evenodd" d="M59.5968 72.9609C59.5968 72.9609 59.5459 76.9976 62.8546 78.5068C66.1613 80.0159 68.5171 79.925 68.2173 81.0918C67.9174 82.2584 59.3106 82.2113 58.5068 81.2988C57.8218 80.5226 56.3321 73.2948 55.9219 73.8474L59.5968 72.9609Z" fill="#FFD7D7"/>
<path fill-rule="evenodd" clip-rule="evenodd" d="M56.9773 77.4722C57.3468 76.7545 57.37 78.7735 58.8274 78.3285C60.0101 77.9674 60.4144 75.9009 61.1618 76.3535C61.9092 76.8061 68.4877 80.3155 68.5252 80.3366C69.3352 80.7752 69.1088 82.1039 67.7408 82.3359C66.2207 82.5934 58.3445 82.42 57.9218 82.0127C57.4991 81.6053 56.681 78.0477 56.9773 77.4722Z" fill="#2B2E35"/>
<path fill-rule="evenodd" clip-rule="evenodd" d="M62.1382 77.5625C61.693 77.5625 61.9904 78.2999 62.4017 78.4702L65.0814 79.5793C65.3554 79.6927 65.8983 79.6427 65.7707 79.3751C65.7066 79.2405 62.386 77.5625 62.1382 77.5625Z" fill="white" fill-opacity="0.540975"/>
<path fill-rule="evenodd" clip-rule="evenodd" d="M25.2446 41.3438C25.2446 41.3438 20.9732 50.4122 26.9759 53.5261C32.781 56.5375 50.1595 52.9758 50.1595 52.9758C50.1595 52.9758 49.849 55.4892 50.1595 57.7309C50.9706 63.5856 54.8279 73.3397 55.644 74.5654C56.7726 76.2603 60.2105 74.9821 60.2752 73.5708C60.34 72.1595 57.6836 54.1351 57.2796 50.6979C56.8777 47.2606 55.609 46.7613 51.9032 45.8217C51.0519 45.6058 40.9842 43.0906 40.0619 43.1639C32.1374 43.7938 25.2446 41.3438 25.2446 41.3438Z" fill="#42474F"/>
<path fill-rule="evenodd" clip-rule="evenodd" d="M29.927 52.5877C35.6742 53.2351 50.8899 51.9006 51.501 52.507C52.0844 53.0859 51.987 63.1579 53.2958 68.9874L53.0968 68.4369C51.8659 65.0003 50.5879 60.8205 50.1595 57.7284C49.849 55.4867 50.1595 52.9733 50.1595 52.9733L49.4588 53.1097C46.1553 53.7335 32.0844 56.1736 26.9759 53.5236C24.2079 52.0877 23.0784 49.7022 23.5873 46.3672C24.4636 50.1367 26.5769 52.2103 29.927 52.5877Z" fill="#52565E"/>
<path fill-rule="evenodd" clip-rule="evenodd" d="M36.3516 74.5801C36.3516 61.2638 25.5565 50.4688 12.2402 50.4688L0.998428 50.4688V76.8434C0.998428 77.8083 1.78068 78.5906 2.74563 78.5906H36.3516L36.3516 74.5801Z" fill="#DFDFDF"/>
</svg>
