<svg width="80" height="26" viewBox="0 0 80 26" fill="none" xmlns="http://www.w3.org/2000/svg">
<path d="M8.03906 1.89062C7.03809 1.89062 6.27637 2.52979 5.77344 3.19141C5.17285 3.98779 4.91406 4.70312 4.13281 5.11133C5.13379 5.11133 5.8125 4.40039 6.39844 3.8125C6.98438 3.22656 7.47754 2.76953 8.03906 2.76953C8.2832 2.76953 8.58105 2.90527 8.80078 3.12891C9.02539 3.35303 9.16211 3.64844 9.16211 3.89258C9.16211 3.94141 9.11328 4.09863 8.98633 4.29297C8.86426 4.48828 8.67383 4.71777 8.47852 4.95508C8.2832 5.19434 8.08301 5.43848 7.91211 5.69727C7.74609 5.95605 7.59961 6.23438 7.59961 6.57617V9.59375L7.64355 9.50586L8.03906 8.71973L8.47852 9.59863V6.57617C8.47852 6.52734 8.52734 6.37109 8.6543 6.17578C8.77637 5.98047 8.9668 5.75098 9.16211 5.51172C9.35742 5.27246 9.55762 5.02832 9.72852 4.77148C9.89453 4.5127 10.041 4.23438 10.041 3.89258C10.041 3.35547 9.78711 2.86963 9.42578 2.50781C9.05957 2.14551 8.57617 1.89062 8.03906 1.89062ZM17.4141 1.89062C16.4131 1.89062 15.6514 2.52979 15.1484 3.19141C14.5479 3.98779 14.2891 4.70312 13.5078 5.11133C14.5088 5.11133 15.1875 4.39844 15.7734 3.8125C16.3594 3.22656 16.8525 2.76953 17.4141 2.76953C17.6582 2.76953 17.9561 2.90527 18.1758 3.12891C18.4004 3.35303 18.5371 3.64844 18.5371 3.89258C18.5371 3.94141 18.4883 4.09863 18.3613 4.29395C18.2393 4.48828 18.0488 4.71777 17.8535 4.95508C17.6582 5.19434 17.458 5.43848 17.2871 5.69727C17.1211 5.95605 16.9746 6.23438 16.9746 6.57617V9.59375L17.0186 9.50586L17.4141 8.71973L17.8535 9.59863V6.57617C17.8535 6.52734 17.9023 6.37109 18.0293 6.17578C18.1514 5.98047 18.3418 5.75098 18.5371 5.51172C18.7324 5.27246 18.9326 5.02832 19.1035 4.77148C19.2695 4.5127 19.416 4.23438 19.416 3.89258C19.416 3.35547 19.1621 2.86963 18.8008 2.50781C18.4346 2.14551 17.9512 1.89062 17.4141 1.89062ZM8.03906 10.6826L4.58203 17.5967C4.60645 17.8799 4.76758 18.4512 5.04102 19.1006C5.33398 19.8135 5.74414 20.6338 6.17383 21.4004C6.6084 22.167 7.06738 22.8896 7.44824 23.4023C7.64355 23.6611 7.81934 23.8662 7.95117 23.9883C7.99023 24.0273 8.01465 24.0371 8.04395 24.0518C8.07324 24.0371 8.09277 24.0273 8.13184 23.9932C8.25879 23.876 8.43457 23.6807 8.62012 23.4365C9.00098 22.9434 9.4502 22.25 9.87988 21.498C10.3047 20.7461 10.7148 19.9404 11.0127 19.2178C11.2861 18.5488 11.457 17.9531 11.4961 17.5918L8.03906 10.6826ZM17.4141 10.6826L13.957 17.5967C13.9814 17.8799 14.1426 18.4512 14.416 19.1006C14.709 19.8135 15.1191 20.6338 15.5488 21.4004C15.9834 22.167 16.4424 22.8896 16.8232 23.4023C17.0186 23.6611 17.1943 23.8662 17.3262 23.9883C17.3652 24.0273 17.3896 24.0371 17.4189 24.0518C17.4482 24.0371 17.4678 24.0273 17.5068 23.9932C17.6338 23.876 17.8096 23.6807 17.9951 23.4365C18.376 22.9434 18.8252 22.25 19.2549 21.498C19.6797 20.7461 20.0898 19.9404 20.3877 19.2178C20.6611 18.5488 20.832 17.9531 20.8711 17.5918L17.4141 10.6826ZM8.03906 14.2422C8.49316 14.2422 8.80078 14.5791 8.98633 14.9404C9.16699 15.3066 9.25977 15.751 9.25977 16.2441C9.25977 16.7373 9.16699 17.1816 8.98633 17.5479C8.9668 17.5869 8.94238 17.6309 8.91797 17.6699C9.58203 17.9971 10.041 18.6807 10.041 19.4668C10.041 20.5654 9.1377 21.4688 8.03906 21.4688C6.94043 21.4688 6.03711 20.5654 6.03711 19.4668C6.03711 18.6807 6.49609 17.9971 7.16016 17.6699C7.13574 17.6309 7.11133 17.5869 7.0918 17.5479C6.91113 17.1816 6.81836 16.7373 6.81836 16.2441C6.81836 15.751 6.91113 15.3066 7.0918 14.9404C7.27734 14.5791 7.58496 14.2422 8.03906 14.2422ZM17.4141 14.2422C17.8682 14.2422 18.1758 14.5791 18.3613 14.9404C18.542 15.3066 18.6348 15.751 18.6348 16.2441C18.6348 16.7373 18.542 17.1816 18.3613 17.5479C18.3418 17.5869 18.3174 17.6309 18.293 17.6699C18.957 17.9971 19.416 18.6807 19.416 19.4668C19.416 20.5654 18.5127 21.4688 17.4141 21.4688C16.3154 21.4688 15.4121 20.5654 15.4121 19.4668C15.4121 18.6807 15.8711 17.9971 16.5352 17.6699C16.5107 17.6309 16.4863 17.5869 16.4668 17.5479C16.2861 17.1816 16.1934 16.7373 16.1934 16.2441C16.1934 15.751 16.2861 15.3066 16.4668 14.9404C16.6523 14.5791 16.96 14.2422 17.4141 14.2422ZM8.03906 15.1211C8.03418 15.1211 8.03418 15.1211 8.03906 15.126C8.04395 15.1211 8.04395 15.1211 8.03906 15.1211ZM8.03906 15.126C8.02441 15.1309 7.96094 15.1699 7.87793 15.3359C7.78027 15.541 7.69727 15.873 7.69727 16.2441C7.69727 16.6152 7.78027 16.9473 7.87793 17.1523C7.96094 17.3184 8.02441 17.3574 8.03906 17.3623C8.05371 17.3574 8.11719 17.3184 8.2002 17.1523C8.29785 16.9473 8.38086 16.6152 8.38086 16.2441C8.38086 15.873 8.29785 15.541 8.2002 15.3359C8.11719 15.1699 8.05371 15.1309 8.03906 15.126ZM8.03906 17.3623C8.03418 17.3672 8.03418 17.3672 8.03906 17.3672C8.04395 17.3672 8.04395 17.3672 8.03906 17.3623ZM17.4141 15.1211C17.4092 15.1211 17.4092 15.1211 17.4141 15.126C17.4189 15.1211 17.4189 15.1211 17.4141 15.1211ZM17.4141 15.126C17.3994 15.1309 17.3359 15.1699 17.2529 15.3359C17.1553 15.541 17.0723 15.873 17.0723 16.2441C17.0723 16.6152 17.1553 16.9473 17.2529 17.1523C17.3359 17.3184 17.3994 17.3574 17.4141 17.3623C17.4287 17.3574 17.4922 17.3184 17.5752 17.1523C17.6729 16.9473 17.7559 16.6152 17.7559 16.2441C17.7559 15.873 17.6729 15.541 17.5752 15.3359C17.4922 15.1699 17.4287 15.1309 17.4141 15.126ZM17.4141 17.3623C17.4092 17.3672 17.4092 17.3672 17.4141 17.3672C17.4189 17.3672 17.4189 17.3672 17.4141 17.3623ZM8.03906 18.3438C7.41406 18.3438 6.91602 18.8418 6.91602 19.4668C6.91602 20.0918 7.41406 20.5898 8.03906 20.5898C8.66406 20.5898 9.16211 20.0918 9.16211 19.4668C9.16211 18.8418 8.66406 18.3438 8.03906 18.3438ZM17.4141 18.3438C16.7891 18.3438 16.291 18.8418 16.291 19.4668C16.291 20.0918 16.7891 20.5898 17.4141 20.5898C18.0391 20.5898 18.5371 20.0918 18.5371 19.4668C18.5371 18.8418 18.0391 18.3438 17.4141 18.3438Z" fill="#400120"/>
<path d="M30.3583 2.88286C30.235 3.36553 30.3605 3.90098 30.7354 4.27598C31.2058 4.74633 31.9288 4.82423 32.4833 4.51036C32.75 4.75175 33.0213 4.98804 33.297 5.21911C33.2808 5.30563 33.2726 5.39345 33.2725 5.48147C33.2725 6.27947 33.9291 6.93459 34.727 6.93459C34.9575 6.93459 35.1759 6.87975 35.3701 6.78272C35.6406 6.96623 35.9137 7.14563 36.1896 7.32084C36.1669 7.42296 36.1554 7.52725 36.1553 7.63186C36.1553 8.42986 36.8119 9.08498 37.6098 9.08498C37.965 9.08498 38.2919 8.95505 38.5456 8.74069L39.1959 9.12155C39.1832 9.1948 39.1767 9.26901 39.1765 9.34336V11.167L34.3451 13.9639V21.4669L40.8272 25.2194L47.3092 21.4669V13.9639L42.432 11.1405V9.34341C42.432 9.29733 42.4289 9.25219 42.4239 9.20761C42.6767 9.0637 42.9234 8.92261 43.1597 8.78602C43.4047 8.97314 43.7099 9.08494 44.0392 9.08494C44.8372 9.08494 45.4923 8.42981 45.4923 7.63181C45.4923 7.5443 45.4841 7.45861 45.469 7.37513C45.7532 7.18791 46.0342 6.99572 46.3117 6.79866C46.4978 6.88561 46.7045 6.93459 46.922 6.93459C47.72 6.93459 48.3765 6.27947 48.3765 5.48147C48.3765 5.39054 48.3678 5.29982 48.3506 5.21053C48.6082 4.99299 48.8632 4.77242 49.1155 4.54884C49.6593 4.81669 50.3406 4.72594 50.7907 4.27594C51.1656 3.90103 51.291 3.36563 51.1678 2.88281H50.2109C50.3993 3.11194 50.386 3.44138 50.1711 3.65625C49.942 3.88538 49.5828 3.88547 49.3537 3.65625C49.1388 3.44133 49.1256 3.11184 49.3139 2.88281H48.357C48.2672 3.23438 48.3101 3.61369 48.4845 3.93881C48.2979 4.10352 48.1098 4.26656 47.9204 4.42791C47.659 4.18003 47.3071 4.02689 46.9221 4.02689C46.1241 4.02689 45.4675 4.68361 45.4675 5.48152C45.4675 5.73698 45.5349 5.97759 45.6526 6.18698C45.4544 6.32507 45.2544 6.4606 45.0527 6.59353C44.7902 6.33666 44.4321 6.17728 44.0393 6.17728C43.2412 6.17728 42.5847 6.834 42.5847 7.63191C42.5847 7.78031 42.6074 7.9237 42.6495 8.05894C42.4512 8.17355 42.2396 8.29463 42.0285 8.41542C41.9811 8.36923 41.9302 8.32667 41.8764 8.28811C41.5627 8.06461 41.1864 7.96552 40.8117 7.95933C40.4369 7.95314 40.0546 8.03986 39.735 8.2642C39.6968 8.29102 39.6603 8.31997 39.6254 8.35092C39.4207 8.23031 39.2146 8.10886 39.0185 7.99364C39.0486 7.87786 39.0646 7.75664 39.0646 7.63195C39.0646 6.83395 38.4081 6.17733 37.6101 6.17733C37.2362 6.17733 36.8934 6.32147 36.6345 6.55673C36.426 6.42479 36.219 6.29047 36.0135 6.1538C36.1231 5.94669 36.1804 5.71593 36.1804 5.48161C36.1804 4.68356 35.5252 4.02694 34.7273 4.02694C34.3401 4.02694 33.9865 4.18181 33.7247 4.43203C33.5063 4.24687 33.2908 4.0583 33.0783 3.86639C33.2219 3.55819 33.2525 3.20873 33.1693 2.88295H32.2122C32.4006 3.11203 32.3873 3.44147 32.1724 3.65639C31.9433 3.88547 31.5841 3.88552 31.355 3.65639C31.1401 3.44142 31.127 3.11194 31.3153 2.88295H30.3583V2.88286ZM34.7271 4.90289C35.0516 4.90289 35.3042 5.15695 35.3042 5.48147C35.3042 5.80598 35.0517 6.05859 34.7272 6.05859C34.4025 6.05859 34.1485 5.80594 34.1485 5.48142C34.1485 5.15691 34.4026 4.90284 34.7272 4.90284L34.7271 4.90289ZM46.9219 4.90289C47.2465 4.90289 47.5005 5.15695 47.5005 5.48147C47.5005 5.80598 47.2465 6.05859 46.9219 6.05859C46.5973 6.05859 46.3433 5.80594 46.3433 5.48142C46.3433 5.15691 46.5973 4.90284 46.9219 4.90284V4.90289ZM37.61 7.05323C37.9344 7.05323 38.1885 7.3073 38.1885 7.63186C38.1885 7.95638 37.9345 8.20898 37.6099 8.20898C37.2853 8.20898 37.0312 7.95633 37.0312 7.63181C37.0312 7.3073 37.2853 7.05323 37.6099 7.05323H37.61ZM44.0391 7.05323C44.3637 7.05323 44.6163 7.3073 44.6163 7.63186C44.6163 7.95638 44.3636 8.20898 44.0391 8.20898C43.7145 8.20898 43.4605 7.95633 43.4605 7.63181C43.4605 7.3073 43.7145 7.05323 44.0392 7.05323H44.0391ZM40.797 8.83509C41.0171 8.83875 41.2356 8.90709 41.368 9.0015C41.5005 9.09581 41.556 9.17986 41.556 9.34331V10.6333L40.8272 10.2114L40.0526 10.6598V9.34341C40.0526 9.15169 40.1115 9.06989 40.2379 8.9813C40.3642 8.8927 40.5771 8.83153 40.7971 8.83514L40.797 8.83509ZM40.4163 11.4615V12.9956L36.939 15.0211L35.6004 14.2494L40.4163 11.4615ZM41.2923 11.4929L46.081 14.265L44.7393 15.0385L41.2924 13.0309L41.2923 11.4929H41.2923ZM40.8241 13.772L44.2111 15.7447L44.211 19.697L40.8241 21.6698L37.4371 19.697L37.4373 15.7448L40.8242 13.7719L40.8241 13.772ZM40.8459 14.6312L38.1795 19.232V19.2659L40.831 20.8117L43.4825 19.2659V16.1682L40.8458 14.6311L40.8459 14.6312ZM35.2212 15.042L36.5611 15.8145V19.7533L35.2212 20.5258V15.0421V15.042ZM46.4332 15.0733L46.4331 20.4943L45.087 19.7184V15.8493L46.4332 15.0733H46.4332ZM44.6306 20.4664L45.9625 21.2342L41.2923 23.9378V22.4109L44.6306 20.4664ZM37.0476 20.484L40.4162 22.4461V23.9693L35.7189 21.2499L37.0476 20.4839L37.0476 20.484Z" fill="#400120"/>
<mask id="mask0_2711_34419" style="mask-type:alpha" maskUnits="userSpaceOnUse" x="60" y="2" width="18" height="23">
<path d="M68.9766 23.0781C72.9461 23.0781 76.1641 19.8602 76.1641 15.8906C76.1641 11.9211 72.9461 8.70312 68.9766 8.70312C65.007 8.70312 61.7891 11.9211 61.7891 15.8906C61.7891 19.8602 65.007 23.0781 68.9766 23.0781Z" stroke="white" stroke-width="2.08333" stroke-linecap="round" stroke-linejoin="round"/>
<path d="M65.625 5.83073L67.0625 3.91406H70.9217L72.3333 5.83073L68.9792 8.70573L65.625 5.83073Z" fill="#555555" stroke="white" stroke-width="2.08333" stroke-linecap="round" stroke-linejoin="round"/>
</mask>
<g mask="url(#mask0_2711_34419)">
<path d="M57 2H80V25H57V2Z" fill="#400120"/>
</g>
</svg>
