<svg width="16" height="16" viewBox="0 0 16 16" fill="none" xmlns="http://www.w3.org/2000/svg">
<rect width="15.7934" height="16" fill="#4FC7EC"/>
<rect x="0.984375" y="1" width="13.8193" height="14" fill="#242238"/>
<path fill-rule="evenodd" clip-rule="evenodd" d="M4.02004 4.05357C3.97082 4.05357 3.96097 4.07575 3.96097 4.13162H3.96094V11.4076C3.96094 11.4633 3.98067 11.4856 4.02989 11.4856H5.0745C5.12385 11.4856 5.14346 11.4632 5.14346 11.3963V8.86342H5.75451C7.20306 8.86342 8.5607 8.19123 8.5607 6.41846C8.55085 5.12491 7.81412 4.03125 5.88267 4.03125C5.13374 4.03125 4.39449 4.04233 4.02004 4.05357ZM5.78325 7.8042C5.36927 7.8042 5.22151 7.79312 5.14258 7.78201V5.14539C5.22151 5.13416 5.49746 5.12305 5.88179 5.12305C6.8081 5.12305 7.3106 5.58122 7.3106 6.47326C7.3106 7.58831 6.56164 7.8042 5.78325 7.8042Z" fill="#4FC7EC"/>
<path d="M11.019 6.9478C10.5444 6.9478 10.4187 7.23663 10.4187 7.44848C10.4187 7.71616 10.5444 7.86104 11.2707 8.19561C12.2681 8.66391 12.6942 9.07653 12.6942 9.87924C12.6942 10.9943 11.9486 11.6287 10.8833 11.6287C10.3702 11.6287 9.72265 11.5811 9.31594 11.2913C9.27719 11.2689 9.25781 11.2355 9.25781 11.1796V10.1538C9.25781 10.0981 9.29659 10.0758 9.32566 10.0981C9.82914 10.4661 10.3907 10.5706 10.8942 10.5706C11.3397 10.5706 11.4945 10.2817 11.4945 10.0364C11.4945 9.74653 11.3869 9.57921 10.6897 9.25588C9.69234 8.78755 9.27715 8.38511 9.27715 7.57116C9.27715 6.66792 9.97312 5.92188 11.1157 5.92188C11.7063 5.92188 12.1227 5.93727 12.3939 6.11557C12.4422 6.1602 12.452 6.19362 12.452 6.26057V7.17489C12.452 7.24171 12.4132 7.27529 12.3648 7.24171C12.0162 7.01881 11.5225 6.9478 11.019 6.9478Z" fill="#4FC7EC"/>
</svg>
