<svg width="16" height="17" viewBox="0 0 16 17" fill="none" xmlns="http://www.w3.org/2000/svg">
<path d="M0.502018 0.351596C0.412492 0.69912 0.503618 1.08465 0.775837 1.35465C1.11743 1.69329 1.6425 1.74939 2.0452 1.5234C2.23886 1.6972 2.43584 1.86733 2.63603 2.0337C2.62427 2.09599 2.61832 2.15922 2.61826 2.2226C2.61826 2.79716 3.0951 3.26885 3.67453 3.26885C3.8419 3.26885 4.0005 3.22936 4.14156 3.1595C4.33793 3.29163 4.53632 3.42079 4.73665 3.54695C4.72015 3.62047 4.7118 3.69556 4.71173 3.77088C4.71173 4.34544 5.18857 4.81713 5.768 4.81713C6.02592 4.81713 6.26328 4.72357 6.44758 4.56923L6.91982 4.84345C6.91056 4.89619 6.90585 4.94962 6.90572 5.00316V6.31617L3.3972 8.32993V13.7321L8.10441 16.4339L12.8116 13.7321V8.32993L9.26981 6.29706V5.00319C9.26981 4.97001 9.26753 4.93751 9.26396 4.90542C9.44754 4.8018 9.62666 4.70022 9.79829 4.60187C9.97618 4.7366 10.1978 4.81709 10.4369 4.81709C11.0164 4.81709 11.4922 4.3454 11.4922 3.77084C11.4922 3.70783 11.4862 3.64614 11.4752 3.58603C11.6817 3.45123 11.8857 3.31286 12.0872 3.17097C12.2224 3.23358 12.3725 3.26885 12.5304 3.26885C13.1099 3.26885 13.5867 2.79716 13.5867 2.2226C13.5866 2.15713 13.5803 2.09181 13.5679 2.02752C13.7549 1.87089 13.9401 1.71208 14.1233 1.55111C14.5182 1.74395 15.013 1.67861 15.3398 1.35461C15.612 1.08468 15.7032 0.699188 15.6136 0.351562H14.9188C15.0556 0.516533 15.046 0.753728 14.8898 0.908438C14.7235 1.07341 14.4626 1.07348 14.2963 0.908438C14.1402 0.753694 14.1306 0.516465 14.2674 0.351562H13.5725C13.5073 0.604688 13.5384 0.877793 13.665 1.11188C13.5296 1.23047 13.393 1.34786 13.2554 1.46403C13.0656 1.28556 12.8101 1.1753 12.5305 1.1753C11.951 1.1753 11.4742 1.64814 11.4742 2.22263C11.4742 2.40657 11.5231 2.57981 11.6086 2.73057C11.4646 2.82999 11.3194 2.92757 11.173 3.02328C10.9823 2.83833 10.7223 2.72358 10.437 2.72358C9.85748 2.72358 9.38068 3.19642 9.38068 3.77091C9.38068 3.87776 9.39716 3.981 9.42776 4.07837C9.28377 4.16089 9.13011 4.24807 8.97683 4.33504C8.94237 4.30178 8.90543 4.27114 8.86634 4.24338C8.63854 4.08246 8.36526 4.01111 8.09315 4.00665C7.82096 4.0022 7.5434 4.06464 7.31124 4.22616C7.28356 4.24547 7.257 4.26632 7.23169 4.2886C7.08304 4.20176 6.93336 4.11432 6.79097 4.03136C6.81283 3.948 6.82447 3.86072 6.82447 3.77094C6.82447 3.19638 6.34767 2.72361 5.7682 2.72361C5.49667 2.72361 5.24773 2.8274 5.05976 2.99679C4.90833 2.90179 4.758 2.80507 4.60879 2.70667C4.68838 2.55755 4.72998 2.3914 4.72998 2.2227C4.72998 1.6481 4.2542 1.17533 3.67473 1.17533C3.39356 1.17533 3.13676 1.28684 2.94668 1.467C2.78808 1.33368 2.63159 1.19791 2.47727 1.05974C2.58153 0.837833 2.60373 0.586226 2.54331 0.351664H1.84831C1.98508 0.5166 1.97548 0.753795 1.81937 0.908539C1.65302 1.07348 1.39217 1.07351 1.22581 0.908539C1.06977 0.753761 1.06021 0.516533 1.19695 0.351664H0.502018V0.351596ZM3.67456 1.80602C3.91026 1.80602 4.0937 1.98894 4.0937 2.2226C4.0937 2.45625 3.91032 2.63813 3.67466 2.63813C3.4389 2.63813 3.25444 2.45621 3.25444 2.22256C3.25444 1.98891 3.43894 1.80599 3.67463 1.80599L3.67456 1.80602ZM12.5304 1.80602C12.766 1.80602 12.9505 1.98894 12.9505 2.2226C12.9505 2.45625 12.766 2.63813 12.5303 2.63813C12.2946 2.63813 12.1101 2.45621 12.1101 2.22256C12.1101 1.98891 12.2946 1.80599 12.5304 1.80599V1.80602ZM5.7681 3.35427C6.00373 3.35427 6.18826 3.53719 6.18826 3.77088C6.18826 4.00453 6.00376 4.18641 5.76807 4.18641C5.5323 4.18641 5.34784 4.00449 5.34784 3.77084C5.34784 3.53719 5.53234 3.35427 5.76803 3.35427H5.7681ZM10.4369 3.35427C10.6726 3.35427 10.856 3.53719 10.856 3.77088C10.856 4.00453 10.6725 4.18641 10.4369 4.18641C10.2012 4.18641 10.0167 4.00449 10.0167 3.77084C10.0167 3.53719 10.2012 3.35427 10.4369 3.35427H10.4369ZM8.08253 4.63721C8.24235 4.63984 8.40097 4.68905 8.49714 4.75702C8.59333 4.82492 8.63364 4.88544 8.63364 5.00312V5.93192L8.10445 5.62817L7.5419 5.95099V5.00319C7.5419 4.86515 7.58472 4.80626 7.67646 4.74247C7.76823 4.67868 7.92281 4.63464 8.08256 4.63724L8.08253 4.63721ZM7.80605 6.52822V7.63279L5.28088 9.09113L4.30876 8.53553L7.80605 6.52822ZM8.44216 6.55083L11.9197 8.54674L10.9453 9.10368L8.44226 7.65817L8.4422 6.55083H8.44216ZM8.10217 8.19176L10.5618 9.61212L10.5617 12.4578L8.1022 13.8782L5.6426 12.4578L5.6427 9.61219L8.10224 8.19172L8.10217 8.19176ZM8.118 8.81039L6.18169 12.123V12.1474L8.10721 13.2604L10.0327 12.1474V9.91702L8.11796 8.81036L8.118 8.81039ZM4.03338 9.10618L5.00645 9.66238V12.4983L4.03338 13.0545V9.10625V9.10618ZM12.1754 9.12872L12.1753 13.0318L11.1979 12.4732V9.68746L12.1754 9.12872H12.1754ZM10.8664 13.0117L11.8336 13.5646L8.4422 15.5112V14.4118L10.8664 13.0117ZM5.35972 13.0244L7.80598 14.4372V15.5338L4.39482 13.5759L5.35969 13.0244L5.35972 13.0244Z" fill="#F8F8F8"/>
</svg>
