<svg width="13" height="17" viewBox="0 0 13 17" fill="none" xmlns="http://www.w3.org/2000/svg">
<path d="M2.83668 0.359375C2.10978 0.359375 1.55663 0.81957 1.19141 1.29594C0.755266 1.86934 0.567336 2.38438 0 2.67828C0.7269 2.67828 1.21977 2.16641 1.64528 1.74313C2.07078 1.32125 2.42891 0.992188 2.83668 0.992188C3.01397 0.992188 3.23027 1.08992 3.38983 1.25094C3.55294 1.4123 3.65223 1.625 3.65223 1.80078C3.65223 1.83594 3.61677 1.94914 3.52458 2.08906C3.43593 2.22969 3.29764 2.39492 3.15581 2.56578C3.01397 2.73805 2.86859 2.91383 2.74449 3.10016C2.62393 3.28648 2.51756 3.48688 2.51756 3.73297V5.90563L2.54947 5.84234L2.83668 5.27633L3.15581 5.90914V3.73297C3.15581 3.69781 3.19127 3.58531 3.28346 3.44469C3.37211 3.30406 3.51039 3.13883 3.65223 2.96656C3.79406 2.7943 3.93944 2.61852 4.06355 2.43359C4.18411 2.24727 4.29048 2.04688 4.29048 1.80078C4.29048 1.41406 4.1061 1.06426 3.8437 0.80375C3.57776 0.542891 3.22673 0.359375 2.83668 0.359375ZM9.64472 0.359375C8.91782 0.359375 8.36467 0.81957 7.99944 1.29594C7.5633 1.86934 7.37537 2.38438 6.80804 2.67828C7.53494 2.67828 8.02781 2.165 8.45331 1.74313C8.87881 1.32125 9.23694 0.992188 9.64472 0.992188C9.82201 0.992188 10.0383 1.08992 10.1979 1.25094C10.361 1.4123 10.4603 1.625 10.4603 1.80078C10.4603 1.83594 10.4248 1.94914 10.3326 2.08977C10.244 2.22969 10.1057 2.39492 9.96384 2.56578C9.82201 2.73805 9.67663 2.91383 9.55253 3.10016C9.43197 3.28648 9.32559 3.48688 9.32559 3.73297V5.90563L9.3575 5.84234L9.64472 5.27633L9.96384 5.90914V3.73297C9.96384 3.69781 9.9993 3.58531 10.0915 3.44469C10.1801 3.30406 10.3184 3.13883 10.4603 2.96656C10.6021 2.7943 10.7475 2.61852 10.8716 2.43359C10.9921 2.24727 11.0985 2.04688 11.0985 1.80078C11.0985 1.41406 10.9141 1.06426 10.6517 0.80375C10.3858 0.542891 10.0348 0.359375 9.64472 0.359375ZM2.83668 6.68961L0.326219 11.6677C0.343948 11.8716 0.460961 12.283 0.659528 12.7505C0.87228 13.2638 1.17013 13.8545 1.48217 14.4064C1.79775 14.9584 2.13106 15.4787 2.40763 15.8478C2.54947 16.0341 2.67712 16.1818 2.77286 16.2697C2.80122 16.2978 2.81895 16.3048 2.84023 16.3154C2.8615 16.3048 2.87569 16.2978 2.90405 16.2732C2.99624 16.1888 3.1239 16.0482 3.25864 15.8724C3.53521 15.5173 3.86143 15.0181 4.17347 14.4767C4.48196 13.9353 4.77981 13.3552 4.99611 12.8349C5.19467 12.3533 5.31878 11.9244 5.34714 11.6642L2.83668 6.68961ZM9.64472 6.68961L7.13425 11.6677C7.15198 11.8716 7.269 12.283 7.46756 12.7505C7.68032 13.2638 7.97817 13.8545 8.2902 14.4064C8.60578 14.9584 8.93909 15.4787 9.21567 15.8478C9.3575 16.0341 9.48515 16.1818 9.58089 16.2697C9.60926 16.2978 9.62699 16.3048 9.64826 16.3154C9.66954 16.3048 9.68372 16.2978 9.71209 16.2732C9.80428 16.1888 9.93193 16.0482 10.0667 15.8724C10.3433 15.5173 10.6695 15.0181 10.9815 14.4767C11.29 13.9353 11.5878 13.3552 11.8041 12.8349C12.0027 12.3533 12.1268 11.9244 12.1552 11.6642L9.64472 6.68961ZM2.83668 9.2525C3.16645 9.2525 3.38983 9.49508 3.52458 9.75524C3.65577 10.0189 3.72314 10.3388 3.72314 10.6939C3.72314 11.049 3.65577 11.3689 3.52458 11.6326C3.51039 11.6607 3.49266 11.6923 3.47494 11.7205C3.95717 11.956 4.29048 12.4482 4.29048 13.0142C4.29048 13.8052 3.6345 14.4556 2.83668 14.4556C2.03887 14.4556 1.38288 13.8052 1.38288 13.0142C1.38288 12.4482 1.71619 11.956 2.19843 11.7205C2.1807 11.6923 2.16297 11.6607 2.14879 11.6326C2.01759 11.3689 1.95022 11.049 1.95022 10.6939C1.95022 10.3388 2.01759 10.0189 2.14879 9.75524C2.28353 9.49508 2.50692 9.2525 2.83668 9.2525ZM9.64472 9.2525C9.97448 9.2525 10.1979 9.49508 10.3326 9.75524C10.4638 10.0189 10.5312 10.3388 10.5312 10.6939C10.5312 11.049 10.4638 11.3689 10.3326 11.6326C10.3184 11.6607 10.3007 11.6923 10.283 11.7205C10.7652 11.956 11.0985 12.4482 11.0985 13.0142C11.0985 13.8052 10.4425 14.4556 9.64472 14.4556C8.8469 14.4556 8.19092 13.8052 8.19092 13.0142C8.19092 12.4482 8.52423 11.956 9.00646 11.7205C8.98874 11.6923 8.97101 11.6607 8.95682 11.6326C8.82563 11.3689 8.75825 11.049 8.75825 10.6939C8.75825 10.3388 8.82563 10.0189 8.95682 9.75524C9.09157 9.49508 9.31495 9.2525 9.64472 9.2525ZM2.83668 9.88531C2.83314 9.88531 2.83314 9.88531 2.83668 9.88883C2.84023 9.88531 2.84023 9.88531 2.83668 9.88531ZM2.83668 9.88883C2.82604 9.89234 2.77995 9.92047 2.71967 10.04C2.64875 10.1877 2.58847 10.4267 2.58847 10.6939C2.58847 10.9611 2.64875 11.2002 2.71967 11.3478C2.77995 11.4673 2.82604 11.4955 2.83668 11.499C2.84732 11.4955 2.89341 11.4673 2.95369 11.3478C3.02461 11.2002 3.08489 10.9611 3.08489 10.6939C3.08489 10.4267 3.02461 10.1877 2.95369 10.04C2.89341 9.92047 2.84732 9.89234 2.83668 9.88883ZM2.83668 11.499C2.83314 11.5025 2.83314 11.5025 2.83668 11.5025C2.84023 11.5025 2.84023 11.5025 2.83668 11.499ZM9.64472 9.88531C9.64117 9.88531 9.64117 9.88531 9.64472 9.88883C9.64826 9.88531 9.64826 9.88531 9.64472 9.88531ZM9.64472 9.88883C9.63408 9.89234 9.58798 9.92047 9.5277 10.04C9.45679 10.1877 9.39651 10.4267 9.39651 10.6939C9.39651 10.9611 9.45679 11.2002 9.5277 11.3478C9.58798 11.4673 9.63408 11.4955 9.64472 11.499C9.65536 11.4955 9.70145 11.4673 9.76173 11.3478C9.83265 11.2002 9.89293 10.9611 9.89293 10.6939C9.89293 10.4267 9.83265 10.1877 9.76173 10.04C9.70145 9.92047 9.65536 9.89234 9.64472 9.88883ZM9.64472 11.499C9.64117 11.5025 9.64117 11.5025 9.64472 11.5025C9.64826 11.5025 9.64826 11.5025 9.64472 11.499ZM2.83668 12.2056C2.38281 12.2056 2.02114 12.5642 2.02114 13.0142C2.02114 13.4642 2.38281 13.8228 2.83668 13.8228C3.29055 13.8228 3.65223 13.4642 3.65223 13.0142C3.65223 12.5642 3.29055 12.2056 2.83668 12.2056ZM9.64472 12.2056C9.19085 12.2056 8.82917 12.5642 8.82917 13.0142C8.82917 13.4642 9.19085 13.8228 9.64472 13.8228C10.0986 13.8228 10.4603 13.4642 10.4603 13.0142C10.4603 12.5642 10.0986 12.2056 9.64472 12.2056Z" fill="#F8F8F8"/>
</svg>
