<svg width="18" height="17" viewBox="0 0 18 17" fill="none" xmlns="http://www.w3.org/2000/svg">
<path d="M8.88399 0L3.87638 0.566383L0 5.75124L8.88414 16.875L17.7676 5.75124L13.8912 0.566383L8.88399 0Z" fill="#FDB300"/>
<path d="M0 5.625L8.88381 16.875L3.59825 5.625H0Z" fill="#EA6C00"/>
<path d="M14.1681 5.625L8.88281 16.875L17.7666 5.625H14.1681Z" fill="#EA6C00"/>
<path d="M3.62015 0.553952L3.32812 5.625L8.8805 0L3.62015 0.553952Z" fill="#FDD231"/>
<path d="M14.4352 5.625L14.1431 0.553952L8.88281 0L14.4352 5.625Z" fill="#FDD231"/>
<path d="M14.6764 5.625H17.7689L14.4375 0L14.6764 5.625Z" fill="#FDAD00"/>
<path d="M0 5.625H3.09251L3.33143 0L0 5.625Z" fill="#FDAD00"/>
<path d="M8.8807 0L3.32812 5.625H14.4329L8.8807 0Z" fill="#FEEEB7"/>
<path d="M3.32812 5.625L8.88066 16.875H8.88105L14.4329 5.625H3.32812Z" fill="#FDAD00"/>
<path d="M8.88399 0L3.87638 0.566383L0 5.75124L8.88414 16.875L17.7676 5.75124L13.8912 0.566383L8.88399 0Z" fill="url(#paint0_linear_1843_43644)"/>
<defs>
<linearGradient id="paint0_linear_1843_43644" x1="-2.77584" y1="10.6016" x2="11.4997" y2="18.2477" gradientUnits="userSpaceOnUse">
<stop stop-color="white" stop-opacity="0.2"/>
<stop offset="1" stop-color="white" stop-opacity="0.01"/>
</linearGradient>
</defs>
</svg>
