<svg width="22" height="22" viewBox="0 0 22 22" fill="none" xmlns="http://www.w3.org/2000/svg">
<circle cx="11" cy="11" r="11" fill="#FF9920"/>
<path d="M8.24566 10.3872H13.8068C13.9901 10.3872 14.1123 10.2038 14.0512 10.0205L13.4401 6.35382C13.4401 6.2316 13.2568 6.10938 13.1345 6.10938H8.85677C8.73455 6.10938 8.55122 6.2316 8.55122 6.35382L7.9401 10.0205V10.0816C7.9401 10.2649 8.06233 10.3872 8.24566 10.3872ZM9.10121 6.72049H12.8901L13.379 9.77604H8.61233L9.10121 6.72049ZM17.1068 11.8538C17.1068 11.7316 16.9845 11.6094 16.8012 11.6094H12.5234C12.4012 11.6094 12.2179 11.7316 12.2179 11.8538L11.6068 15.5205V15.5816C11.6068 15.7649 11.729 15.8872 11.9123 15.8872H17.4734C17.6568 15.8872 17.779 15.7038 17.7179 15.5205L17.1068 11.8538ZM12.279 15.276L12.7679 12.2205H16.5568L17.0457 15.276H12.279ZM9.46788 11.6094H5.1901C5.06788 11.6094 4.88455 11.7316 4.88455 11.8538L4.27344 15.5205V15.5816C4.27344 15.7649 4.39566 15.8872 4.57899 15.8872H10.1401C10.3234 15.8872 10.4457 15.7038 10.3845 15.5205L9.77344 11.8538C9.77344 11.7316 9.5901 11.6094 9.46788 11.6094ZM4.94566 15.276L5.43455 12.2205H9.22344L9.71233 15.276H4.94566Z" fill="white"/>
</svg>
