<svg width="26" height="20" viewBox="0 0 26 20" fill="none" xmlns="http://www.w3.org/2000/svg">
<path d="M7.6875 8.75H18.375C18.3875 8.75 18.4031 8.75 18.4156 8.74687C18.5531 8.725 18.6438 8.59688 18.6219 8.45938L17.3656 0.709375C17.3469 0.5875 17.2406 0.5 17.1187 0.5H8.94375C8.82188 0.5 8.71562 0.5875 8.69687 0.709375L7.44063 8.45938C7.4375 8.47188 7.4375 8.4875 7.4375 8.5C7.4375 8.6375 7.55 8.75 7.6875 8.75ZM10.5375 2.625H15.5219L16.1688 6.625H9.8875L10.5375 2.625ZM10.6156 11.4594C10.5969 11.3375 10.4906 11.25 10.3687 11.25H2.19375C2.07187 11.25 1.96563 11.3375 1.94688 11.4594L0.690625 19.2094C0.6875 19.2219 0.6875 19.2375 0.6875 19.25C0.6875 19.3875 0.8 19.5 0.9375 19.5H11.625C11.6375 19.5 11.6531 19.5 11.6656 19.4969C11.8031 19.475 11.8938 19.3469 11.8719 19.2094L10.6156 11.4594ZM3.14062 17.375L3.7875 13.375H8.77188L9.41875 17.375H3.14062ZM25.3094 19.2094L24.0531 11.4594C24.0344 11.3375 23.9281 11.25 23.8062 11.25H15.6313C15.5094 11.25 15.4031 11.3375 15.3844 11.4594L14.1281 19.2094C14.125 19.2219 14.125 19.2375 14.125 19.25C14.125 19.3875 14.2375 19.5 14.375 19.5H25.0625C25.075 19.5 25.0906 19.5 25.1031 19.4969C25.2375 19.475 25.3313 19.3469 25.3094 19.2094ZM16.5781 17.375L17.225 13.375H22.2094L22.8563 17.375H16.5781Z" fill="#400120"/>
</svg>
