<svg width="14" height="10" viewBox="0 0 14 10" fill="none" xmlns="http://www.w3.org/2000/svg">
<path d="M4.24566 4.38715H9.80677C9.9901 4.38715 10.1123 4.20382 10.0512 4.02049L9.4401 0.35382C9.4401 0.231597 9.25677 0.109375 9.13455 0.109375H4.85677C4.73455 0.109375 4.55122 0.231597 4.55122 0.35382L3.9401 4.02049V4.0816C3.9401 4.26493 4.06233 4.38715 4.24566 4.38715ZM5.10121 0.720486H8.8901L9.37899 3.77604H4.61233L5.10121 0.720486ZM13.1068 5.85382C13.1068 5.7316 12.9845 5.60938 12.8012 5.60938H8.52344C8.40122 5.60938 8.21788 5.7316 8.21788 5.85382L7.60677 9.52049V9.5816C7.60677 9.76493 7.72899 9.88715 7.91233 9.88715H13.4734C13.6568 9.88715 13.779 9.70382 13.7179 9.52049L13.1068 5.85382ZM8.27899 9.27604L8.76788 6.22049H12.5568L13.0457 9.27604H8.27899ZM5.46788 5.60938H1.1901C1.06788 5.60938 0.884549 5.7316 0.884549 5.85382L0.273438 9.52049V9.5816C0.273438 9.76493 0.39566 9.88715 0.578993 9.88715H6.1401C6.32344 9.88715 6.44566 9.70382 6.38455 9.52049L5.77344 5.85382C5.77344 5.7316 5.5901 5.60938 5.46788 5.60938ZM0.94566 9.27604L1.43455 6.22049H5.22344L5.71233 9.27604H0.94566Z" fill="white"/>
</svg>
